<svg width="205" height="44" viewBox="0 0 205 44" fill="none" xmlns="http://www.w3.org/2000/svg">
<path d="M0.56 15V0.899999H3.14V15H0.56ZM6.24359 15V0.899999H8.18359L16.3636 11.48H15.8436V0.899999H18.2436V15H16.3036L8.14359 4.42H8.64359V15H6.24359ZM26.2613 15.2C25.1279 15.2 24.0813 15.06 23.1213 14.78C22.1746 14.4867 21.3613 14.0867 20.6813 13.58L21.4813 11.56C21.9346 11.88 22.4079 12.1533 22.9013 12.38C23.3946 12.5933 23.9213 12.76 24.4813 12.88C25.0413 12.9867 25.6346 13.04 26.2613 13.04C27.3146 13.04 28.0746 12.8667 28.5413 12.52C29.0079 12.1733 29.2413 11.72 29.2413 11.16C29.2413 10.6667 29.0813 10.2933 28.7613 10.04C28.4413 9.77333 27.8679 9.55333 27.0413 9.38L24.7812 8.92C23.4879 8.65333 22.5213 8.20667 21.8813 7.58C21.2413 6.95333 20.9213 6.11333 20.9213 5.06C20.9213 4.18 21.1546 3.41333 21.6213 2.76C22.0879 2.10667 22.7413 1.6 23.5813 1.24C24.4213 0.879999 25.4013 0.699999 26.5213 0.699999C27.5213 0.699999 28.4479 0.846666 29.3013 1.14C30.1546 1.42 30.8679 1.82667 31.4413 2.36L30.6413 4.28C30.0679 3.8 29.4413 3.44667 28.7613 3.22C28.0813 2.98 27.3213 2.86 26.4813 2.86C25.5346 2.86 24.7946 3.04667 24.2613 3.42C23.7413 3.78 23.4813 4.28 23.4813 4.92C23.4813 5.41333 23.6413 5.80667 23.9613 6.1C24.2946 6.39333 24.8546 6.62 25.6413 6.78L27.8813 7.22C29.2146 7.48667 30.2013 7.92667 30.8413 8.54C31.4813 9.14 31.8013 9.95333 31.8013 10.98C31.8013 11.82 31.5746 12.56 31.1213 13.2C30.6679 13.8267 30.0279 14.32 29.2013 14.68C28.3746 15.0267 27.3946 15.2 26.2613 15.2ZM32.5742 15L38.9542 0.899999H41.1142L47.5742 15H44.9542L43.2342 11.04L44.2742 11.74H35.8142L36.8942 11.04L35.1742 15H32.5742ZM40.0142 3.66L37.1942 10.34L36.6742 9.72H43.3942L42.9742 10.34L40.0942 3.66H40.0142ZM49.1342 15V0.899999H58.4342V2.92H51.7142V6.92H57.9742V8.94H51.7142V15H49.1342ZM66.0678 15V0.899999H72.2278C73.7745 0.899999 74.9678 1.26667 75.8078 2C76.6611 2.73333 77.0878 3.75333 77.0878 5.06C77.0878 5.92667 76.8945 6.66667 76.5078 7.28C76.1345 7.89333 75.5945 8.36667 74.8878 8.7C74.1811 9.02 73.3478 9.18 72.3878 9.18L72.6678 8.8H73.3478C73.9078 8.8 74.4078 8.94667 74.8478 9.24C75.2878 9.53333 75.6478 9.98 75.9278 10.58L77.9878 15H75.1478L73.0678 10.42C72.8811 9.95333 72.5945 9.64667 72.2078 9.5C71.8345 9.35333 71.3811 9.28 70.8478 9.28H68.6478V15H66.0678ZM68.6478 7.38H71.8078C72.7145 7.38 73.4011 7.19333 73.8678 6.82C74.3478 6.43333 74.5878 5.87333 74.5878 5.14C74.5878 4.40667 74.3478 3.85333 73.8678 3.48C73.4011 3.10667 72.7145 2.92 71.8078 2.92H68.6478V7.38ZM79.5531 7.94C79.5531 6.46 79.8198 5.18 80.3531 4.1C80.8998 3.02 81.6798 2.18667 82.6931 1.6C83.7065 0.999999 84.9131 0.699999 86.3131 0.699999C87.6998 0.699999 88.8998 0.999999 89.9131 1.6C90.9265 2.18667 91.7065 3.02 92.2531 4.1C92.8131 5.18 93.0931 6.45333 93.0931 7.92C93.0931 9.4 92.8131 10.6867 92.2531 11.78C91.7065 12.86 90.9265 13.7 89.9131 14.3C88.8998 14.9 87.6998 15.2 86.3131 15.2C84.9131 15.2 83.7065 14.9 82.6931 14.3C81.6931 13.7 80.9198 12.86 80.3731 11.78C79.8265 10.6867 79.5531 9.40667 79.5531 7.94ZM82.2531 7.94C82.2531 9.52667 82.5931 10.7667 83.2731 11.66C83.9531 12.5533 84.9665 13 86.3131 13C87.6198 13 88.6265 12.5533 89.3331 11.66C90.0398 10.7667 90.3931 9.52667 90.3931 7.94C90.3931 6.34 90.0398 5.1 89.3331 4.22C88.6398 3.34 87.6331 2.9 86.3131 2.9C84.9665 2.9 83.9531 3.34 83.2731 4.22C82.5931 5.1 82.2531 6.34 82.2531 7.94ZM94.8023 15V13.1L102.702 2.22V3.04H94.8023V0.899999H105.162V2.78L97.2423 13.66V12.86H105.422V15H94.8023ZM114.137 15.2C112.551 15.2 111.217 14.9067 110.137 14.32C109.057 13.7333 108.244 12.9 107.697 11.82C107.151 10.74 106.877 9.46 106.877 7.98C106.877 6.48667 107.171 5.2 107.757 4.12C108.344 3.02667 109.184 2.18667 110.277 1.6C111.384 0.999999 112.711 0.699999 114.257 0.699999C115.284 0.699999 116.184 0.84 116.957 1.12C117.731 1.38667 118.411 1.78 118.997 2.3L118.137 4.3C117.711 3.96667 117.304 3.7 116.917 3.5C116.531 3.3 116.131 3.16 115.717 3.08C115.304 2.98667 114.824 2.94 114.277 2.94C112.731 2.94 111.557 3.38 110.757 4.26C109.971 5.12667 109.577 6.37333 109.577 8C109.577 9.62667 109.951 10.8667 110.697 11.72C111.457 12.5733 112.644 13 114.257 13C114.804 13 115.351 12.9467 115.897 12.84C116.457 12.7333 117.004 12.58 117.537 12.38L117.057 13.46V9.24H113.757V7.36H119.197V14.14C118.544 14.4733 117.764 14.7333 116.857 14.92C115.951 15.1067 115.044 15.2 114.137 15.2ZM120.582 15L126.962 0.899999H129.122L135.582 15H132.962L131.242 11.04L132.282 11.74H123.822L124.902 11.04L123.182 15H120.582ZM128.022 3.66L125.202 10.34L124.682 9.72H131.402L130.982 10.34L128.102 3.66H128.022ZM137.142 15V0.899999H143.302C144.849 0.899999 146.042 1.26667 146.882 2C147.735 2.73333 148.162 3.75333 148.162 5.06C148.162 5.92667 147.969 6.66667 147.582 7.28C147.209 7.89333 146.669 8.36667 145.962 8.7C145.255 9.02 144.422 9.18 143.462 9.18L143.742 8.8H144.422C144.982 8.8 145.482 8.94667 145.922 9.24C146.362 9.53333 146.722 9.98 147.002 10.58L149.062 15H146.222L144.142 10.42C143.955 9.95333 143.669 9.64667 143.282 9.5C142.909 9.35333 142.455 9.28 141.922 9.28H139.722V15H137.142ZM139.722 7.38H142.882C143.789 7.38 144.475 7.19333 144.942 6.82C145.422 6.43333 145.662 5.87333 145.662 5.14C145.662 4.40667 145.422 3.85333 144.942 3.48C144.475 3.10667 143.789 2.92 142.882 2.92H139.722V7.38ZM0.56 40V25.9H2.5L10.68 36.48H10.16V25.9H12.56V40H10.62L2.46 29.42H2.96V40H0.56ZM15.1977 32.94C15.1977 31.46 15.4643 30.18 15.9977 29.1C16.5443 28.02 17.3243 27.1867 18.3377 26.6C19.351 26 20.5577 25.7 21.9577 25.7C23.3443 25.7 24.5443 26 25.5577 26.6C26.571 27.1867 27.351 28.02 27.8977 29.1C28.4577 30.18 28.7377 31.4533 28.7377 32.92C28.7377 34.4 28.4577 35.6867 27.8977 36.78C27.351 37.86 26.571 38.7 25.5577 39.3C24.5443 39.9 23.3443 40.2 21.9577 40.2C20.5577 40.2 19.351 39.9 18.3377 39.3C17.3377 38.7 16.5643 37.86 16.0177 36.78C15.471 35.6867 15.1977 34.4067 15.1977 32.94ZM17.8977 32.94C17.8977 34.5267 18.2377 35.7667 18.9177 36.66C19.5977 37.5533 20.611 38 21.9577 38C23.2643 38 24.271 37.5533 24.9777 36.66C25.6843 35.7667 26.0377 34.5267 26.0377 32.94C26.0377 31.34 25.6843 30.1 24.9777 29.22C24.2843 28.34 23.2777 27.9 21.9577 27.9C20.611 27.9 19.5977 28.34 18.9177 29.22C18.2377 30.1 17.8977 31.34 17.8977 32.94ZM30.9758 43.74C30.7491 43.74 30.4758 43.7267 30.1558 43.7C29.8491 43.6733 29.5358 43.6267 29.2158 43.56V41.52C29.4691 41.5733 29.7091 41.6133 29.9358 41.64C30.1758 41.6667 30.3758 41.68 30.5358 41.68C31.1491 41.68 31.5891 41.5 31.8558 41.14C32.1358 40.78 32.2758 40.2067 32.2758 39.42V25.9H34.8558V39.42C34.8558 40.38 34.7224 41.18 34.4558 41.82C34.1891 42.46 33.7691 42.94 33.1958 43.26C32.6358 43.58 31.8958 43.74 30.9758 43.74ZM36.4219 40L42.8019 25.9H44.9619L51.4219 40H48.8019L47.0819 36.04L48.1219 36.74H39.6619L40.7419 36.04L39.0219 40H36.4219ZM43.8619 28.66L41.0419 35.34L40.5219 34.72H47.2419L46.8219 35.34L43.9419 28.66H43.8619ZM55.7105 40L50.7305 25.9H53.4105L57.2505 37.46H56.4505L60.5905 25.9H62.5105L66.3505 37.46H65.6105L69.6305 25.9H72.1505L67.1305 40H64.9905L61.2705 29.16H61.7105L57.8505 40H55.7105ZM71.4609 40L77.8409 25.9H80.0009L86.4609 40H83.8409L82.1209 36.04L83.1609 36.74H74.7009L75.7809 36.04L74.0609 40H71.4609ZM78.9009 28.66L76.0809 35.34L75.5609 34.72H82.2809L81.8609 35.34L78.9809 28.66H78.9009ZM86.4609 40L92.8409 25.9H95.0009L101.461 40H98.8409L97.1209 36.04L98.1609 36.74H89.7009L90.7809 36.04L89.0609 40H86.4609ZM93.9009 28.66L91.0809 35.34L90.5609 34.72H97.2809L96.8609 35.34L93.9809 28.66H93.9009ZM103.021 40V25.9H104.961L113.141 36.48H112.621V25.9H115.021V40H113.081L104.921 29.42H105.421V40H103.021ZM128.527 40.2C127.394 40.2 126.347 40.06 125.387 39.78C124.44 39.4867 123.627 39.0867 122.947 38.58L123.747 36.56C124.2 36.88 124.674 37.1533 125.167 37.38C125.66 37.5933 126.187 37.76 126.747 37.88C127.307 37.9867 127.9 38.04 128.527 38.04C129.58 38.04 130.34 37.8667 130.807 37.52C131.274 37.1733 131.507 36.72 131.507 36.16C131.507 35.6667 131.347 35.2933 131.027 35.04C130.707 34.7733 130.134 34.5533 129.307 34.38L127.047 33.92C125.754 33.6533 124.787 33.2067 124.147 32.58C123.507 31.9533 123.187 31.1133 123.187 30.06C123.187 29.18 123.42 28.4133 123.887 27.76C124.354 27.1067 125.007 26.6 125.847 26.24C126.687 25.88 127.667 25.7 128.787 25.7C129.787 25.7 130.714 25.8467 131.567 26.14C132.42 26.42 133.134 26.8267 133.707 27.36L132.907 29.28C132.334 28.8 131.707 28.4467 131.027 28.22C130.347 27.98 129.587 27.86 128.747 27.86C127.8 27.86 127.06 28.0467 126.527 28.42C126.007 28.78 125.747 29.28 125.747 29.92C125.747 30.4133 125.907 30.8067 126.227 31.1C126.56 31.3933 127.12 31.62 127.907 31.78L130.147 32.22C131.48 32.4867 132.467 32.9267 133.107 33.54C133.747 34.14 134.067 34.9533 134.067 35.98C134.067 36.82 133.84 37.56 133.387 38.2C132.934 38.8267 132.294 39.32 131.467 39.68C130.64 40.0267 129.66 40.2 128.527 40.2ZM143.058 40.2C141.591 40.2 140.331 39.9067 139.278 39.32C138.238 38.72 137.438 37.88 136.878 36.8C136.318 35.7067 136.038 34.42 136.038 32.94C136.038 31.46 136.318 30.18 136.878 29.1C137.438 28.02 138.238 27.1867 139.278 26.6C140.331 26 141.591 25.7 143.058 25.7C144.044 25.7 144.931 25.84 145.718 26.12C146.518 26.4 147.204 26.8133 147.778 27.36L146.938 29.4C146.311 28.8933 145.704 28.5333 145.118 28.32C144.544 28.0933 143.884 27.98 143.138 27.98C141.711 27.98 140.618 28.4133 139.858 29.28C139.111 30.1333 138.738 31.3533 138.738 32.94C138.738 34.5267 139.111 35.7533 139.858 36.62C140.618 37.4867 141.711 37.92 143.138 37.92C143.884 37.92 144.544 37.8133 145.118 37.6C145.704 37.3733 146.311 37 146.938 36.48L147.778 38.52C147.204 39.0533 146.518 39.4667 145.718 39.76C144.931 40.0533 144.044 40.2 143.058 40.2ZM150.189 40V25.9H152.769V31.78H159.989V25.9H162.569V40H159.989V33.92H152.769V40H150.189ZM165.677 40V25.9H175.177V27.92H168.157V31.82H174.717V33.86H168.157V37.96H175.177V40H165.677ZM177.592 40V25.9H179.852L185.032 37.56H184.412L189.592 25.9H191.832V40H189.492V29.54H190.212L185.472 40H183.932L179.192 29.54H179.932V40H177.592ZM194.974 40V25.9H204.474V27.92H197.454V31.82H204.014V33.86H197.454V37.96H204.474V40H194.974Z" fill="white"/>
</svg>
