<svg width="32" height="32" viewBox="0 0 32 32" fill="none" xmlns="http://www.w3.org/2000/svg">
<g clip-path="url(#clip0_4419_1767)">
<path opacity="0.2" d="M16 20C20.4183 20 24 16.4183 24 12C24 7.58172 20.4183 4 16 4C11.5817 4 8 7.58172 8 12C8 16.4183 11.5817 20 16 20Z" fill="#54B095"/>
<path d="M22 7H28" stroke="#54B095" stroke-width="2" stroke-linecap="round" stroke-linejoin="round"/>
<path d="M25 4V10" stroke="#54B095" stroke-width="2" stroke-linecap="round" stroke-linejoin="round"/>
<path d="M3.87402 26.9988C5.10347 24.8708 6.87129 23.1037 8.99988 21.8752C11.1285 20.6467 13.5429 20 16.0005 20C18.4582 20 20.8726 20.6468 23.0012 21.8754C25.1297 23.1039 26.8975 24.871 28.1269 26.9991" stroke="#54B095" stroke-width="2" stroke-linecap="round" stroke-linejoin="round"/>
<path d="M23.5066 14.7728C22.9718 16.2167 22.0316 17.4754 20.7988 18.3979C19.566 19.3203 18.0931 19.8672 16.557 19.9728C15.021 20.0784 13.4871 19.7383 12.1396 18.9933C10.7922 18.2483 9.68847 17.1301 8.96112 15.773C8.23377 14.416 7.91371 12.8778 8.03938 11.3432C8.16505 9.80864 8.7311 8.34301 9.66954 7.12236C10.608 5.90172 11.8789 4.97798 13.3296 4.46212C14.7803 3.94627 16.3491 3.86023 17.8475 4.21436" stroke="#54B095" stroke-width="2" stroke-linecap="round" stroke-linejoin="round"/>
</g>
<defs>
<clipPath id="clip0_4419_1767">
<rect width="32" height="32" fill="white"/>
</clipPath>
</defs>
</svg>
