<svg width="26" height="22" viewBox="0 0 26 22" fill="none" xmlns="http://www.w3.org/2000/svg">
<path d="M19.6062 15.802C22.6528 16.5199 24.8355 18.4569 24.8355 20.7337" stroke="white" stroke-width="1.91075" stroke-linecap="round" stroke-linejoin="round"/>
<path d="M1.30359 20.7337C1.30359 17.8456 4.81544 15.5044 9.14754 15.5044C13.4796 15.5044 16.9915 17.8456 16.9915 20.7337" stroke="white" stroke-width="1.91075" stroke-linecap="round" stroke-linejoin="round"/>
<path d="M16.9915 11.5824C19.8795 11.5824 22.2208 9.24114 22.2208 6.35308C22.2208 3.46502 19.8795 1.12378 16.9915 1.12378" stroke="white" stroke-width="1.91075" stroke-linecap="round" stroke-linejoin="round"/>
<path d="M9.14751 11.5824C12.0356 11.5824 14.3768 9.24114 14.3768 6.35308C14.3768 3.46502 12.0356 1.12378 9.14751 1.12378C6.25945 1.12378 3.91821 3.46502 3.91821 6.35308C3.91821 9.24114 6.25945 11.5824 9.14751 11.5824Z" stroke="white" stroke-width="1.91075" stroke-linecap="round" stroke-linejoin="round"/>
</svg>
