<svg width="246" height="253" viewBox="0 0 246 253" fill="none" xmlns="http://www.w3.org/2000/svg">
<path opacity="0.19" fill-rule="evenodd" clip-rule="evenodd" d="M47.0901 221.739C50.5303 222.596 52.9586 221.241 53.9237 218.982C58.5003 217.705 103.954 219.107 116.096 218.717C118.618 218.64 119.848 216.303 121.264 214.839C122.79 213.266 124.253 212.129 125.763 210.525L157.316 179.279L222.181 179.139C223.909 180.806 225.372 183.002 229.342 182.301C232.05 181.834 234.136 179.591 234.245 176.398C234.354 173.002 232.362 170.681 229.731 170.027C225.481 168.952 223.816 171.522 222.166 173.111L192.154 173.173C182.144 173.173 172.135 173.205 162.126 173.173C152.132 173.173 155.557 172.363 143.322 184.404L120.704 207.035C115.411 212.612 115.66 212.705 111.286 212.674H66.4391C63.9018 212.674 61.3645 212.643 58.8272 212.674C54.7799 212.705 55.1068 213.266 52.9275 211.116C45.3933 203.702 36.2247 218.359 47.0901 221.708M123.692 139.607C125.872 140.199 133.11 148.579 135.57 150.869C137.048 152.239 138.2 153.392 139.601 154.856C144.022 159.467 142.466 159.342 150.918 159.326L230.198 159.358C231.957 160.822 233.342 163.174 237.343 162.597C243.694 161.678 244.706 152.177 238.075 150.401C234.121 149.358 231.832 151.71 230.198 153.361L152.521 153.423C148.428 153.423 147.774 154.093 145.377 151.866C142.31 149.015 139.524 146.071 136.535 143.081C124.424 130.963 130.324 133.626 111.27 133.611C99.6579 133.611 88.0453 133.595 76.4328 133.611C73.7709 133.611 70.3619 134.078 68.7897 132.738C66.9995 131.212 66.3613 129.701 62.6098 130.449C53.9082 132.178 58.0488 145.464 65.7854 142.769C68.5406 141.803 68.1982 139.592 71.218 139.545L123.708 139.576L123.692 139.607ZM13.1864 139.561C18.3389 139.109 28.1924 139.342 33.2048 139.342C40.163 139.342 37.8592 140.199 46.2651 131.757L78.4564 100.294L102.475 100.2L118.68 84.0323C121.638 81.2286 120.828 80.5277 126.51 80.5277H144.256C146.186 82.5058 148.459 85.2939 152.926 83.051C160.118 79.4218 154.156 67.4751 146.684 71.9765C141.843 74.8892 147.68 74.4687 135.305 74.4842H127.304C115.645 74.4842 121.778 73.9858 110.726 83.6896L104.328 90.1069C99.0664 94.9043 103.472 94.1411 90.069 94.1566H78.8612C74.0667 94.0788 75.888 94.5616 69.1321 100.948C68.1048 101.913 67.2175 102.396 66.3146 103.346C60.1814 109.904 52.585 116.337 46.732 122.598L35.6176 133.377L16.7978 133.408C14.1827 133.408 13.8402 133.813 12.3458 132.396C4.29797 124.779 -3.98337 138.05 5.20082 142.271C8.9212 143.984 11.7699 141.165 13.202 139.561H13.1864ZM16.144 159.373C20.2069 159.155 51.6666 158.797 53.1299 160.043C55.9941 162.504 71.0312 178.609 72.4478 179.108H123.708C125.981 180.541 126.759 183.189 131.258 182.27C137.095 181.086 137.982 171.647 131.631 170.043C127.102 168.89 125.638 171.553 123.708 173.064C122.603 173.516 85.8661 173.173 81.2584 173.173C73.8799 173.173 76.2304 174.56 67.5132 165.713C65.6297 163.812 64.0419 162.161 62.1117 160.308C53.0676 151.647 58.1111 153.423 36.8162 153.439C33.9987 153.439 17.1403 153.828 15.9728 153.158C15.2723 152.753 12.9373 149.28 8.46977 150.401C1.90074 152.052 2.60123 161.367 8.93676 162.582C12.9062 163.345 14.6185 160.759 16.144 159.389V159.373ZM54.4219 41.0271C64.4466 40.3729 87.9675 40.9959 100.467 40.9959C108.873 40.9959 107.503 41.2296 111.893 36.7749C113.746 34.9058 126.479 21.8998 127.475 21.5104C128.58 21.0899 155.183 21.1366 158.125 21.3235C159.916 22.6163 161.41 25.1552 165.27 24.4543C167.792 24.0026 170.283 21.5572 170.376 18.5199C170.485 14.8284 168.477 12.8502 165.66 12.1337C161.939 11.1992 159.589 13.5979 158.125 15.1399C153.705 15.5604 147.525 15.2022 142.917 15.2178C137.702 15.2178 132.503 15.1866 127.288 15.1866C123.506 15.1866 122.432 18.1616 118.556 21.7597L110.679 29.5165C109.371 30.8872 108.36 32.1332 107.005 33.4572C105.168 35.264 104.141 34.8902 100.872 34.859C93.5559 34.7967 55.8073 35.3575 54.4219 34.7812C53.6435 34.4541 49.3783 28.3171 43.7744 33.8933C40.1475 37.5225 43.1673 42.9585 46.5297 44.0021C50.8105 45.3261 52.803 42.5068 54.4219 41.0115V41.0271ZM222.197 100.2C224.329 100.2 229.108 99.6394 230.727 100.527C232.237 101.368 232.907 103.44 236.222 103.487C244.908 103.642 244.737 90.0913 235.397 90.9636C231.723 91.3062 231.973 93.5648 230.089 94.0788C228.47 94.5149 154.872 94.1255 143.726 94.1411C142.092 94.1411 136.395 94.4682 135.289 93.8451C134.169 93.2221 134.776 92.6613 133.048 91.7268C127.024 88.4558 120.517 95.356 124.517 100.652C129.11 106.758 133.904 101.711 135.725 100.262C140.956 99.8263 147.898 100.231 153.347 100.216H222.212L222.197 100.2ZM157.238 133.533C148.521 122.988 139.601 140.511 150.14 142.816C154.265 143.719 155.899 140.978 157.736 139.638C164.819 139.327 174.781 140.386 181.382 139.545C183.468 139.28 191.687 130.137 193.679 128.221C203.564 118.704 200.046 119.857 208.996 119.857C216.577 119.857 225.186 119.483 232.626 119.904C234.541 121.243 236.02 123.938 240.16 123.034C246.387 121.679 246.792 112.614 240.487 110.838C236.471 109.717 234.479 112.194 233.062 113.829C227.163 114.639 215.519 113.954 209.012 113.954C207.004 113.954 205.011 113.954 203.003 113.954C197.555 113.891 199.05 115.044 192.512 121.025L180.557 133.081C178.875 134.109 160.507 133.813 157.254 133.533H157.238ZM36.8007 198.858L104.966 198.811C106.616 200.494 108.095 202.596 112.08 201.989C118.665 200.992 118.587 191.21 112.422 189.653C108.297 188.609 106.569 191.382 104.888 192.768L36.4115 192.893C31.1189 185.65 24.2074 191.164 24.332 196.023C24.4098 199.045 26.6358 201.397 29.251 201.942C33.5162 202.83 34.995 200.307 36.8162 198.843L36.8007 198.858ZM24.581 80.5121H85.7571C90.8317 87.2721 97.8522 82.537 97.572 77.0543C97.4319 74.344 95.0347 71.6961 92.6374 71.2444C88.6991 70.5124 86.9246 72.8332 85.2745 74.4063L24.8145 74.4531C22.9777 72.5061 21.7791 70.6993 17.7318 71.2133C15.2256 71.5248 12.7972 74.126 12.6416 77.0075C12.4548 80.4498 14.5095 82.7706 17.1247 83.5339C21.1875 84.7176 22.9932 82.0697 24.6122 80.5121H24.581ZM140.473 41.0115H192.574C200.155 48.7372 204.669 41.0271 204.731 38.1611C204.794 34.9836 202.334 32.4448 200.139 31.8529C196.341 30.8404 194.162 33.1924 192.589 34.7656C186.768 35.5444 175.389 34.8746 168.96 34.8746C165.877 34.8746 141.75 35.4509 140.255 34.4385C139.103 33.6597 138.574 32.5538 136.784 31.9463C133.095 30.7003 129.639 33.3793 128.861 35.6846C126.51 42.5691 135.321 48.0674 140.489 41.0115H140.473ZM193.025 218.889C194.535 220.524 196.574 222.767 200.466 221.583C201.618 221.241 202.926 219.932 203.439 219.325C206.179 216.07 204.202 210.353 200.061 209.403C195.251 208.297 194.504 211.459 192.558 212.409C191.438 212.97 151.821 212.892 150.934 212.409C149.829 211.786 148.272 208.531 143.804 209.341C134.978 210.929 138.963 224.87 147.494 221.443C149.175 220.773 149.844 219.418 150.685 218.982C151.946 218.344 189.554 218.39 193.025 218.889ZM166.64 200.727C166.703 200.649 166.811 200.525 166.858 200.478L167.263 199.98C167.263 199.98 167.403 199.824 167.465 199.746L168.508 198.796C169.473 198.313 208.047 198.344 209.37 198.5C211.145 198.702 212.016 199.98 212.997 201.085C216.064 204.263 224.22 200.54 222.275 193.952C221.683 191.927 219.41 189.809 217.013 189.513C213.122 189.03 212.079 191.522 210.195 192.799L168.96 192.893C167.232 191.646 166.111 189.279 162.546 189.45C155.806 189.777 155.106 198.562 159.153 201.008C161.348 202.332 164.897 202.69 166.656 200.712L166.64 200.727ZM141.983 244.901C143.151 243.343 144.723 241.91 146.108 240.477C149.019 237.486 148.723 238.312 155.323 238.312H166.531C168.275 239.698 169.956 242.268 173.536 241.505C180.292 240.056 180.105 231.038 174.408 229.34C169.66 227.923 168.664 230.773 166.531 232.144L146.17 232.237C143.415 234.73 141.516 236.895 139.01 239.402C136.41 242.003 132.161 238.483 129.623 244.792C127.288 250.648 135.679 256.069 140.52 250.913C141.921 249.418 141.843 247.408 141.952 244.885L141.983 244.901ZM15.9105 100.231C23.7716 99.8263 32.4421 100.309 40.4121 100.2C43.4631 100.169 43.4787 99.764 45.2377 101.446C46.3118 102.49 47.7439 103.487 49.6274 103.502C57.8776 103.611 58.0644 91.2907 50.0321 90.9168C47.7906 90.8078 46.6231 91.462 45.5179 92.5367C43.6499 94.3436 44.3504 94.2034 40.8168 94.1566C32.7067 94.0476 24.0518 94.5149 16.0351 94.1099C14.2916 92.6302 12.9996 90.2938 8.79667 91.0259C6.15037 91.4776 3.89324 93.9542 3.89324 97.0538C3.89324 104.219 12.0189 105.371 15.9105 100.231ZM86.0528 21.3235C102.195 21.3235 97.5409 21.7129 103.845 15.9031C110.399 9.85964 111.021 14.1274 113.963 9.99983C116.859 5.9345 113.668 0.810019 110.087 0.124678C105.386 -0.778727 101.246 3.36447 102.662 8.11514C102.242 9.18988 96.8715 14.7505 95.9064 15.0932C94.9257 15.4358 83.2353 15.3424 81.6631 15.171C79.8418 13.4421 77.3356 10.7475 73.2105 12.4764C70.8911 13.4421 68.3849 16.8221 69.7081 20.093C70.7199 22.6319 73.2728 25.2798 77.18 24.4231C78.7211 24.0805 79.9664 22.8811 80.8537 22.1023C82.2702 20.8563 83.8424 21.3235 86.084 21.3235H86.0528ZM186.487 60.6528H210.18C211.861 62.2415 213.48 64.6558 217.309 64.0639C223.769 63.0671 224.361 53.2075 217.978 51.6655C213.433 50.5752 212.281 53.2231 210.18 54.6249L189.352 54.6872C185.476 54.7651 186.55 54.3134 184.386 52.7558C181.039 50.3259 176.79 51.5097 175.233 54.5003C173.318 58.1762 174.859 61.8054 177.49 63.254C181.958 65.715 184.433 62.5531 186.487 60.6528ZM111.675 238.312C121.56 248.701 128.938 231.941 119.396 229.2C115.349 228.047 113.87 230.633 112.298 232.128L87.1425 232.237C85.9283 230.836 84.7453 229.122 82.0367 228.966C79.2503 228.811 77.6158 230.337 76.5106 231.739C73.0238 236.178 77.4602 241.63 81.6475 241.614C84.4806 241.614 85.7727 239.947 87.1581 238.795C88.6213 237.564 92.6841 238.234 94.8479 238.234C99.9225 238.234 106.818 237.845 111.66 238.296L111.675 238.312ZM87.2515 159.389L105.667 159.326C109.885 159.326 108.858 158.781 111.099 160.931C114.384 164.061 119.443 162.628 121.093 159.373C124.626 152.426 116.127 147.473 111.115 151.772C108.157 154.311 109.044 153.439 102.055 153.392H87.2359C77.0555 142.847 69.4902 160.339 79.8107 162.504C83.9202 163.376 85.5547 160.806 87.2359 159.358L87.2515 159.389ZM233.109 133.517C229.933 133.86 225.87 133.626 222.602 133.642C219.846 133.642 214.647 134.452 212.857 132.863C211.191 131.399 209.137 129.202 205.447 130.76C201.042 132.614 199.19 139.997 205.805 142.66C209.432 144.124 211.285 141.741 212.919 140.261C214.569 138.751 229.124 139.514 232.611 139.654C234.214 140.962 236.331 143.859 240.036 142.894C250.481 140.168 242.34 123.315 233.109 133.517ZM22.6819 179.201L40.4121 179.123C42.0933 180.743 43.5254 183.002 47.5726 182.316C50.0477 181.896 52.4916 179.31 52.5695 176.398C52.6629 172.784 50.7793 170.681 47.9774 169.996C43.6966 168.937 42.0933 171.569 40.5055 173.173C35.5554 173.267 30.5585 173.096 25.5928 173.173C21.4833 173.236 22.9466 172.457 20.3937 170.775C18.5413 169.56 16.2841 169.435 14.1048 170.494C10.4311 172.27 9.35706 177.535 12.5482 180.65C16.0973 184.108 20.4715 182.285 22.6819 179.201ZM11.9411 119.966L23.5848 119.841C25.4994 121.539 27.025 123.876 31.1345 123.066C33.6874 122.552 35.9912 120.153 36.069 117.1C36.1624 112.957 30.8387 106.555 24.0518 113.876L11.9878 113.954C5.76121 106.462 0.110599 113.004 0.00163393 116.695C-0.107331 120.418 5.24752 127.474 11.9411 119.966ZM128.658 119.841H128.767L132.254 119.904L140.489 119.873H140.847L144.178 119.904L167.061 119.997C168.835 121.539 170.08 123.72 174.128 123.112C176.821 122.707 179.109 120.231 179.125 117.1C179.14 113.736 177.257 111.415 174.439 110.776C169.738 109.701 168.96 112.879 166.843 113.845L142.092 113.985C140.411 113.751 137.858 113.159 136.177 113.891L122.93 113.954H87.2359C85.6793 112.162 83.9825 109.67 79.7796 110.854C73.5841 112.599 74.0823 121.897 80.1376 123.05C84.6207 123.907 85.5392 121.306 87.6718 119.95L123.303 119.873L128.674 119.841H128.658ZM36.8007 60.7307C73.2728 60.1699 112.734 60.6839 149.72 60.6372C155.541 60.6372 155.386 62.5842 162.437 69.5155C166.002 73.0045 170.112 76.805 173.349 80.4187L222.399 80.4965C224.034 82.2878 225.497 84.593 229.638 83.5961C232.331 82.942 234.276 81.0105 234.245 77.4437C234.23 74.2506 232.19 71.8519 229.529 71.2912C225.435 70.4189 224.065 72.8487 222.181 74.3129L175.513 74.4219C173.848 72.584 172.275 71.3223 170.688 69.6713C168.882 67.7866 167.59 66.447 165.675 64.6558L155.713 54.7339L36.3337 54.6716C30.5585 47.7715 23.9584 53.1763 24.3008 58.2074C24.4876 60.7618 27.0561 63.4253 29.3288 64.0016C33.1114 64.9673 35.1973 62.1014 36.7695 60.7307H36.8007Z" fill="#33679A"/>
</svg>
