<svg width="202" height="77" viewBox="0 0 202 77" fill="none" xmlns="http://www.w3.org/2000/svg">
<mask id="mask0_33_170" style="mask-type:luminance" maskUnits="userSpaceOnUse" x="0" y="0" width="76" height="77">
<path d="M16.0831 0.630371H59.4015C62.4404 0.630371 65.2499 1.57644 67.6581 3.21055C67.7727 3.18188 67.8874 3.15321 68.0307 3.15321C68.8621 3.15321 69.5215 3.86993 69.5215 4.75866C69.5215 5.64739 68.8621 6.3641 68.0307 6.3641C67.1994 6.3641 66.54 5.64739 66.54 4.75866C66.54 4.70132 66.54 4.64398 66.54 4.58665C64.4472 3.21055 62.0103 2.40783 59.4015 2.40783H16.0831C8.5146 2.4365 2.32216 9.1163 2.32216 17.2582V28.4676C2.72352 28.7543 3.01021 29.2417 3.01021 29.8151C3.01021 30.7038 2.35083 31.4205 1.51944 31.4205C0.688048 31.4205 0.0286686 30.7038 0.0286686 29.8151C0.0286686 29.2417 0.286687 28.7543 0.716717 28.4676H0.688048V17.2582C0.688048 12.6712 2.43684 8.51425 5.2177 5.50404C8.02723 2.49383 11.8688 0.630371 16.1118 0.630371H16.0831ZM37.1259 54.8715C37.4126 54.8715 37.6993 54.9862 37.9 55.1868C38.1007 55.3875 38.2153 55.6455 38.2153 55.9609V64.8769C38.2153 65.1635 38.1007 65.4502 37.9 65.6509C37.6993 65.8516 37.4413 65.9663 37.1259 65.9663C36.8106 65.9663 36.5526 65.8516 36.3519 65.6509C36.1512 65.4502 36.0365 65.1922 36.0365 64.8769V55.9609C36.0365 55.6742 36.1512 55.3875 36.3519 55.1868C36.5526 54.9862 36.8106 54.8715 37.0973 54.8715H37.1259ZM13.7036 60.3759L19.0933 64.6475C19.38 64.8482 19.466 65.1635 19.38 65.4502C19.38 65.5936 19.294 65.7369 19.208 65.8516C19.122 65.9663 19.0073 66.0809 18.864 66.1669C18.52 66.3963 18.0326 66.425 17.5166 66.1383L12.5569 61.9527C12.5569 61.9527 12.3562 61.8093 12.2415 61.7233C11.6395 61.3219 11.0948 60.9492 11.0948 60.3185C11.0948 59.6305 11.7542 59.2291 12.4135 58.7991L18.4053 54.9002H18.434C18.9213 54.7281 19.3227 54.7855 19.6094 54.9862C19.7527 55.0722 19.8674 55.2155 19.9247 55.3589C19.9821 55.5022 20.0394 55.6742 20.0107 55.8176C20.0107 56.1042 19.8101 56.4196 19.4374 56.6776L13.6463 60.3472H13.7036V60.3759ZM9.48933 54.8715C9.77602 54.8715 10.0627 54.9862 10.2634 55.1868C10.4641 55.3875 10.5787 55.6455 10.5787 55.9609V64.8769C10.5787 65.1635 10.4641 65.4502 10.2634 65.6509C10.0627 65.8516 9.80468 65.9663 9.48933 65.9663C9.17397 65.9663 8.91596 65.8516 8.74394 65.6509C8.54326 65.4502 8.42859 65.1922 8.42859 64.8769V55.9609C8.42859 55.6742 8.54326 55.3875 8.74394 55.1868C8.94462 54.9862 9.20264 54.8715 9.518 54.8715H9.48933ZM47.16 57.0503V65.1062C47.16 65.3929 47.0453 65.6796 46.8446 65.8803C46.6439 66.0809 46.3859 66.1956 46.0705 66.1956C45.7552 66.1956 45.4972 66.0809 45.3252 65.8803C45.1245 65.6796 45.0098 65.4216 45.0098 65.1062V57.0503H40.5948C40.3081 57.0503 40.0215 56.9356 39.8208 56.735C39.6201 56.5343 39.5054 56.2763 39.5054 55.9609C39.5054 55.6455 39.6201 55.3875 39.8208 55.1868C40.0215 54.9862 40.2795 54.8715 40.5948 54.8715H51.6609C51.9476 54.8715 52.2343 54.9862 52.435 55.1868C52.6357 55.3875 52.7503 55.6455 52.7503 55.9609C52.7503 56.2763 52.6357 56.5343 52.435 56.735C52.2343 56.9356 51.9763 57.0503 51.6609 57.0503H47.1886H47.16ZM65.9379 65.4502C65.2786 65.9949 64.2752 66.253 63.0997 66.253H56.3626C55.5599 66.253 54.9578 66.0236 54.5278 65.5649C54.0978 65.1062 53.8971 64.4755 53.8971 63.6154V57.509C53.8971 56.6776 54.1264 56.0182 54.5278 55.5595C54.9578 55.1008 55.5599 54.8715 56.3626 54.8715H63.0997C64.3612 54.8715 65.3072 55.1295 65.9666 55.6455C66.626 56.1616 66.9413 56.9643 66.9413 57.9964C66.9413 58.7131 66.8267 59.2865 66.54 59.7452C66.3106 60.0892 65.9953 60.3759 65.5652 60.5479C65.9953 60.7486 66.3106 61.0066 66.54 61.3506C66.8267 61.7806 66.9413 62.354 66.9413 63.0707C66.9413 64.1028 66.5686 64.9055 65.9379 65.4216V65.4502ZM56.0472 57.1363C56.0472 57.1363 55.9612 57.3657 55.9612 57.681V63.4148C55.9612 63.7301 55.9612 63.9021 56.0472 63.9595C56.1046 64.0168 56.2479 64.0455 56.5059 64.0455H62.8131C63.5011 64.0455 63.9885 63.9595 64.3038 63.7301C64.5905 63.5294 64.7339 63.2141 64.7339 62.784C64.7339 62.354 64.6478 62.01 64.4185 61.8093C64.1891 61.6086 63.7878 61.5226 63.1857 61.5226H58.1687C57.108 61.4653 57.0506 59.6592 58.1687 59.5158H63.1857C63.7878 59.5158 64.1891 59.4298 64.4185 59.2291C64.6478 59.0285 64.7339 58.7131 64.7339 58.2544C64.7339 57.8244 64.6192 57.509 64.3038 57.3083C63.9885 57.1077 63.5011 57.0216 62.7844 57.0216H56.4773C56.2193 57.0216 56.0759 57.0216 56.0186 57.1077L56.0472 57.1363ZM23.2503 63.4148V65.4502C23.2216 65.8516 22.9349 66.0809 22.5622 66.1669C22.4189 66.1956 22.2469 66.2243 22.1035 66.2243C21.9315 66.2243 21.7882 66.1956 21.6448 66.1383C21.3295 66.0236 21.1001 65.7656 21.1001 65.4502V57.3657C21.1001 56.5629 21.3295 55.9609 21.7595 55.5309C22.1895 55.1008 22.8489 54.9002 23.6517 54.9002H29.9301C31.3062 54.9002 32.3669 55.1868 33.055 55.7889C33.7717 56.3909 34.1157 57.3083 34.1157 58.5124C34.1157 59.7165 33.743 60.6052 33.0263 61.1786C32.3096 61.752 31.2202 62.0387 29.8154 62.0387H25.3144C24.1964 62.0387 24.2537 60.0605 25.3144 60.0605H29.8441C30.6468 60.0605 31.1915 59.9745 31.5355 59.7452C31.8509 59.5158 31.9942 59.1431 31.9942 58.5697C31.9942 57.9964 31.8509 57.595 31.5069 57.337C31.1628 57.079 30.6468 56.9356 29.9014 56.9356H23.795C23.5083 56.9356 23.3363 56.9643 23.279 57.0216C23.2216 57.079 23.193 57.2223 23.193 57.509V57.681V63.4148H23.2503ZM36.6099 7.68286L36.5239 8.51426L37.2693 8.82961C37.2693 8.82961 37.4126 8.94428 37.4413 9.03029C37.4699 9.1163 37.4699 9.2023 37.4413 9.28831C37.4413 9.34565 37.3839 9.37431 37.3553 9.40298C37.3266 9.43165 37.2693 9.46032 37.2119 9.46032L36.4092 9.63233L36.3232 10.4637C36.3232 10.4637 36.2659 10.6357 36.2085 10.6931C36.1512 10.7504 36.0652 10.7791 35.9505 10.7791C35.8932 10.7791 35.8358 10.7791 35.8072 10.7217C35.7498 10.6931 35.7212 10.6644 35.6925 10.6071L35.2911 9.89035L34.4884 10.0624C34.4884 10.0624 34.3164 10.0624 34.2304 10.005C34.1444 9.94769 34.087 9.89035 34.087 9.77568C34.087 9.71834 34.087 9.661 34.087 9.60366C34.087 9.54633 34.1157 9.48899 34.1731 9.46032L34.7178 8.85828L34.2877 8.14156C34.2877 8.14156 34.2304 7.96955 34.2591 7.88354C34.2591 7.79754 34.3451 7.71153 34.4024 7.68286C34.4597 7.65419 34.5171 7.62553 34.5744 7.62553C34.6317 7.62553 34.6891 7.62553 34.7464 7.65419L35.4918 7.96955L36.0365 7.33884C36.0365 7.33884 36.1799 7.22416 36.2659 7.22416C36.3519 7.22416 36.4379 7.22416 36.5239 7.31017C36.5812 7.33884 36.6099 7.39618 36.6099 7.45351C36.6099 7.51085 36.6099 7.56819 36.6099 7.62553V7.68286ZM36.1225 8.45692V8.80094L36.4092 8.94428C36.4379 8.94428 36.4665 9.00162 36.4952 9.03029C36.4952 9.05896 36.4952 9.1163 36.4952 9.14497C36.4952 9.14497 36.4952 9.17363 36.4665 9.2023C36.4665 9.2023 36.4379 9.2023 36.4092 9.23097L36.0652 9.31698V9.661C36.0652 9.661 36.0078 9.74701 35.9792 9.74701C35.9792 9.74701 35.9218 9.77568 35.8645 9.77568H35.8072C35.8072 9.77568 35.7785 9.74701 35.7498 9.71834L35.5778 9.43165L35.2338 9.51766C35.2338 9.51766 35.1478 9.51766 35.1191 9.51766C35.0905 9.51766 35.0618 9.46032 35.0618 9.43165V9.37431C35.0618 9.37431 35.0618 9.34565 35.0905 9.31698L35.3198 9.05896L35.1478 8.77227C35.1478 8.77227 35.1478 8.68627 35.1478 8.6576C35.1478 8.62893 35.1765 8.60026 35.2051 8.57159H35.2625H35.3198L35.6352 8.71494L35.8645 8.45692C35.8645 8.45692 35.9218 8.39958 35.9505 8.39958C35.9792 8.39958 36.0365 8.39958 36.0652 8.42825C36.0652 8.42825 36.0939 8.45692 36.0939 8.48559V8.54292L36.1225 8.45692ZM39.6201 6.22076C40.1361 6.39277 40.6235 6.65079 41.0535 6.96615C41.4836 7.2815 41.8563 7.68286 42.1716 8.11289C42.487 8.54292 42.7163 9.03029 42.8883 9.54633C43.0603 10.0337 43.1463 10.5784 43.1463 11.1231C43.1463 11.8112 43.003 12.4705 42.745 13.1012C42.487 13.732 42.1143 14.3053 41.6269 14.764C41.1682 15.2514 40.5948 15.6241 39.9641 15.8821C39.3621 16.1401 38.7027 16.2835 37.986 16.2835C37.4699 16.2835 36.9826 16.1975 36.4952 16.0541C36.0078 15.9108 35.5491 15.6814 35.1191 15.3947C34.6891 15.108 34.3164 14.764 34.001 14.3627C33.6857 13.9613 33.4277 13.5313 33.227 13.0726C33.1697 12.9579 33.1697 12.8432 33.227 12.7285C33.2843 12.6139 33.3703 12.5279 33.485 12.4705C33.571 12.4419 33.6857 12.4132 33.7717 12.4705C33.8577 12.4705 33.9437 12.5279 34.001 12.6139C34.1731 12.8146 34.3737 12.9866 34.6031 13.1586C34.8324 13.3306 35.0618 13.4453 35.2911 13.5599C35.5205 13.6746 35.7785 13.7606 36.0365 13.818C36.2945 13.8753 36.5526 13.904 36.8392 13.904C37.3553 13.904 37.8426 13.7893 38.3013 13.6173C38.76 13.4166 39.1901 13.1299 39.5341 12.7859C39.8781 12.4419 40.1648 12.0118 40.3655 11.5531C40.5375 11.0944 40.6522 10.6071 40.6522 10.091C40.6522 9.80435 40.6235 9.48899 40.5662 9.23097C40.5088 8.94428 40.3941 8.6576 40.2795 8.42825C40.1361 8.17023 39.9928 7.91221 39.8208 7.68286C39.6488 7.45351 39.4194 7.25283 39.1901 7.08082C39.1041 6.99482 39.0181 6.88014 39.0181 6.76547C39.0181 6.65079 39.0181 6.53612 39.1041 6.42144C39.1614 6.33544 39.2474 6.2781 39.3334 6.2781C39.4194 6.2781 39.5054 6.2781 39.6201 6.2781V6.22076ZM41.4262 8.62893L41.3402 8.51426C41.3976 8.6576 41.4262 8.82961 41.4836 9.00162C41.5696 9.34565 41.5982 9.68967 41.5982 10.0624C41.5982 10.6931 41.4836 11.3238 41.2542 11.8685C41.0249 12.4419 40.6522 12.9579 40.2221 13.4166C39.7921 13.8466 39.2761 14.1906 38.7027 14.4487C38.158 14.678 37.5273 14.8214 36.8966 14.8214C36.5812 14.8214 36.2945 14.7927 36.0078 14.7354C35.8932 14.7354 35.8072 14.678 35.6925 14.6493C36.0365 14.8787 36.4092 15.0507 36.8106 15.1941C37.2119 15.3087 37.6133 15.3661 38.0433 15.3661C38.6167 15.3661 39.1614 15.2514 39.6488 15.0507C40.1648 14.85 40.6235 14.5347 41.0249 14.1333C41.4262 13.732 41.7416 13.2733 41.9423 12.7572C42.1429 12.2699 42.2576 11.7251 42.2576 11.1518C42.2576 10.6931 42.2003 10.263 42.0569 9.86168C41.9136 9.43165 41.7129 9.03029 41.4549 8.68627L41.4262 8.62893ZM32.5389 20.8418C32.1662 20.9565 31.9082 21.2718 31.7936 21.6445C30.9048 21.6445 30.0161 21.6445 29.156 21.6158C28.9554 20.9565 28.3246 20.6124 27.7226 20.8131C27.3499 20.9278 27.0919 21.2431 26.9772 21.6158C25.9165 21.6158 24.9131 21.6158 23.9097 21.6445C23.795 21.2718 23.5083 20.9851 23.1643 20.8991V19.093C23.623 18.835 23.8523 18.2329 23.6803 17.6596C23.4796 17.0288 22.8489 16.6848 22.2469 16.8855C21.7882 17.0575 21.4728 17.4875 21.4442 17.9749C20.1827 17.8316 18.95 17.7456 17.6886 17.6882C17.6886 17.5449 17.6886 17.3729 17.6312 17.2295C17.4306 16.5988 16.7998 16.2548 16.1978 16.4555C15.6818 16.6275 15.3951 17.1435 15.3951 17.6596C14.3057 17.6596 13.1876 17.7456 12.0408 17.8602C12.0408 17.7169 12.0408 17.5736 11.9835 17.4302C11.7828 16.7995 11.1521 16.4555 10.5501 16.6562C9.94803 16.8568 9.63267 17.5449 9.80468 18.1756C9.91936 18.577 10.2347 18.8636 10.5787 18.9783L10.4641 20.8705C10.4641 20.8705 10.3494 20.8705 10.2921 20.9278C9.69001 21.1285 9.37465 21.8165 9.54667 22.4472C9.66134 22.8486 9.94803 23.1353 10.2921 23.2213L9.86202 29.3277C9.86202 29.3277 9.74735 29.3277 9.69001 29.3564C9.08797 29.5571 8.77261 30.2451 8.94462 30.8758C9.0593 31.2485 9.34599 31.5352 9.69001 31.6499L9.31732 36.7816H9.25998C8.65794 37.0109 8.34258 37.699 8.5146 38.3297C8.62927 38.6737 8.85862 38.9317 9.17397 39.0751L8.57193 47.819H8.48593C7.88388 48.0483 7.56853 48.7364 7.74054 49.3671C7.94122 49.9978 8.57193 50.3418 9.17397 50.1412C9.46066 50.0265 9.69001 49.8258 9.83335 49.5391C11.8402 49.9978 13.675 50.2272 15.3664 50.2845V50.3705C15.5958 51.0012 16.2265 51.3452 16.8285 51.1446C17.2299 51.0012 17.4879 50.6859 17.5739 50.2845C19.4087 50.1985 21.1575 49.9405 22.8776 49.5678C23.1356 50.0265 23.6803 50.2558 24.1964 50.0838C24.7984 49.8831 25.1138 49.1951 24.9417 48.5644C24.8271 48.1917 24.569 47.9337 24.2824 47.819C24.2824 46.0415 24.225 42.888 24.1677 39.8204C24.7697 39.6198 25.0851 38.9317 24.8844 38.301C24.7697 37.8996 24.4544 37.613 24.1103 37.4983C24.0817 35.3481 24.0243 33.456 23.9957 32.4239C24.3684 32.2806 24.6264 31.9652 24.7124 31.5925C25.5438 31.4205 26.5759 31.2772 27.6653 31.1625C27.6653 31.2198 27.6653 31.2485 27.6939 31.3058C27.8946 31.9366 28.5253 32.2806 29.1274 32.0799C29.5861 31.9366 29.9014 31.4779 29.9014 30.9905C30.6755 30.9332 31.4782 30.9045 32.2809 30.8758C32.5389 31.4205 33.1123 31.6785 33.657 31.5065C33.9724 31.3919 34.2304 31.1338 34.3451 30.8471C35.2625 30.8471 36.0939 30.8471 36.8679 30.8471C37.0973 31.3919 37.6993 31.6785 38.244 31.4779C38.5307 31.3919 38.76 31.1625 38.9034 30.9045C40.8815 30.9905 42.8883 31.1912 44.8951 31.4779C47.1313 31.7932 49.3388 32.2519 51.6036 32.854L51.3456 48.2777C51.3456 49.5391 51.2309 49.2524 52.4637 49.5391C55.0152 50.1412 57.28 50.3992 59.5162 50.3992C61.7523 50.3992 63.9598 50.0838 66.3966 49.7111C67.7154 49.5105 67.4574 49.1378 67.4574 47.991L65.4219 19.1503V18.8923C65.4219 18.3189 65.4219 17.5162 64.8199 17.2869C64.6765 17.2295 64.4472 17.1722 64.2465 17.1435L63.9311 17.0575C63.5871 16.9715 63.4151 17.1149 63.3291 17.4302C63.3004 17.5736 63.3004 17.7456 63.2718 17.9462V18.2329L63.0711 17.6309C62.9277 17.1435 62.813 16.7422 62.4404 16.6848C62.2683 16.6562 61.953 16.6275 61.6663 16.5988C61.4656 16.5988 61.2649 16.5988 61.1789 16.5702C60.5769 16.4841 60.4049 16.9142 60.2329 17.4015C60.1469 17.6882 60.0035 18.0036 59.7168 18.0036C59.6022 18.0036 59.4015 17.5162 59.2868 17.1722C59.1148 16.7422 59.0001 16.3981 58.6274 16.3981H58.3694C57.5667 16.3981 57.4807 16.3981 56.5919 16.4841C56.2193 16.5415 56.1046 16.8568 55.9612 17.3155C55.8179 17.7169 55.6459 18.2616 55.4165 18.2616C55.4165 18.2616 55.3019 16.6848 54.4991 16.8568L53.9258 16.9715C53.7537 17.0002 53.5817 17.0575 53.3811 17.1149C52.521 17.3729 52.521 17.5162 52.435 18.4336L52.1196 22.0172H51.6323L51.4889 20.8418L51.2596 20.7558C50.8295 20.5838 50.3708 20.4978 49.8835 20.4978C49.3961 20.4978 48.8801 20.5838 48.3354 20.8131L48.106 20.8991L47.934 22.0459L46.9306 21.9599L46.8159 20.6411L46.5292 20.5551C45.9559 20.3831 45.3825 20.3257 44.7805 20.3257C44.2071 20.3257 43.605 20.4118 43.0317 20.5551L42.7737 20.6411L42.5443 21.9599H41.7129L41.5122 20.6411L41.2829 20.5551C40.8529 20.3831 40.3942 20.2971 39.8781 20.2684C39.3908 20.2684 38.8747 20.3257 38.33 20.5264L38.1007 20.5838L38.0147 20.9278C37.7853 20.8418 37.5273 20.8131 37.2693 20.9278C36.8679 21.0711 36.5812 21.4152 36.4952 21.8165H36.3519C35.5205 21.7878 34.6891 21.7592 33.829 21.7305V21.6445C33.6283 21.0138 32.969 20.6698 32.3669 20.8705L32.5389 20.8418ZM32.1949 22.9633C32.1949 22.9633 32.4243 23.1066 32.5389 23.1639L33.141 29.1844H33.055C33.055 29.1844 32.8256 29.299 32.7396 29.3564L29.5861 26.6329C29.6434 26.4035 29.6434 26.1455 29.5861 25.9161C29.5574 25.8301 29.5287 25.7155 29.4714 25.6294L32.1662 22.9633H32.1949ZM33.2557 23.1353C33.2557 23.1353 33.3703 23.0779 33.4277 23.0493L36.7532 25.6008C36.6672 25.8015 36.6672 26.0595 36.6959 26.2888L34.001 29.299C34.001 29.299 33.915 29.2417 33.8577 29.2417L33.227 23.1353H33.2557ZM37.1546 27.0342C37.1546 27.0342 37.3553 27.1489 37.4413 27.1776L37.556 29.213C37.2693 29.3277 37.0686 29.5571 36.9539 29.8437L34.4597 29.9011L37.1546 27.0342ZM38.33 27.1202C38.846 26.8622 39.1041 26.2315 38.9034 25.6581C38.7887 25.2854 38.5307 25.0274 38.2153 24.8841L38.1293 23.1926C38.7314 22.9919 39.0467 22.3039 38.8747 21.6732L38.9894 21.2718C39.3621 21.1571 39.7061 21.1285 40.0501 21.1285C40.3655 21.1285 40.6522 21.1858 40.9102 21.2718L41.1395 22.7626L43.433 22.8486L43.6911 21.3291C44.1211 21.2431 44.5224 21.1858 44.9525 21.1858C45.3538 21.1858 45.7839 21.2431 46.1852 21.3291L46.2999 22.7339L48.8227 22.9633L49.0521 21.5298C49.4248 21.4152 49.7401 21.3578 50.0555 21.3578C50.3422 21.3578 50.6289 21.4152 50.8869 21.5012L51.0876 22.9059H53.0944C53.2377 21.4152 53.3811 19.9817 53.4957 18.5196C53.5244 18.1469 53.5244 18.0896 53.8111 18.0036C54.7285 17.6882 54.6711 17.8889 54.7858 18.1756C54.9865 18.663 55.1872 19.179 55.6172 19.179C56.4773 19.179 56.764 18.2903 56.9933 17.6309C57.1367 17.2009 58.5414 17.0575 58.7134 17.5162C58.9428 18.1183 59.2295 18.921 59.9749 18.921C60.8636 18.921 61.0929 18.2903 61.2649 17.7456C61.4083 17.4015 61.3509 17.4875 61.8383 17.5162C62.4117 17.5162 62.3544 17.6022 62.469 17.9176C62.641 18.5196 62.8704 19.2363 63.3864 19.351C63.9598 19.4657 64.1891 19.1217 64.2752 18.663C64.3612 18.2616 64.1605 17.9176 64.5618 18.0323C64.8199 18.1183 66.368 42.0853 66.7407 47.7617C66.8267 48.9084 67.0273 48.7364 65.9093 48.9084C63.7304 49.2811 61.7236 49.5104 59.6882 49.5104C57.6527 49.5104 55.5886 49.3098 53.3237 48.7937C52.091 48.5357 52.349 48.6791 52.3777 47.4176L52.6357 32.1659L52.3203 32.0799C49.9122 31.4492 47.5613 30.9332 45.2105 30.5891C43.2037 30.3024 41.1969 30.1018 39.1901 30.0158V29.9584C39.0754 29.5857 38.8174 29.3277 38.502 29.1844L38.3873 27.1202H38.33ZM37.3553 24.9414C37.3553 24.9414 37.2119 25.0274 37.1546 25.0561L33.8864 22.5332V22.4759L36.7246 22.5619C36.8392 22.7913 37.0112 22.9919 37.2406 23.1066L37.3266 24.9127L37.3553 24.9414ZM28.554 29.7577C28.296 29.8437 28.0953 30.0158 27.952 30.2451C26.9772 30.3598 26.0025 30.5031 25.2571 30.6465L28.0093 27.3496C28.0093 27.3496 28.21 27.4642 28.3246 27.4642L28.5827 29.7577H28.554ZM29.7294 30.0731C29.5861 29.9297 29.4141 29.8151 29.2134 29.7291L28.9554 27.3782C28.9554 27.3782 29.1274 27.2922 29.1847 27.2349L32.3096 30.0158C31.5642 30.0158 30.6755 30.0158 29.7007 30.0731H29.7294ZM28.984 25.1707C28.984 25.1707 28.7547 25.0847 28.6113 25.0847L28.554 23.0493C28.7833 22.9346 28.984 22.7052 29.07 22.4759C29.9874 22.4759 30.8762 22.4759 31.7936 22.5046L28.9554 25.1707H28.984ZM27.0346 22.5046C27.2066 22.8773 27.5506 23.1353 27.952 23.1926L28.0093 25.2568C28.0093 25.2568 27.9233 25.3141 27.8659 25.3428L24.139 22.5619C25.1424 22.5619 26.1172 22.5332 27.0346 22.5046ZM27.4359 25.9161C27.3786 26.1455 27.3499 26.4035 27.4359 26.6615C27.4359 26.7189 27.4646 26.7475 27.4933 26.8049L24.4544 30.3598C24.4544 30.3598 24.1677 30.1591 23.9957 30.1018L23.3076 23.1639C23.3076 23.1639 23.451 23.0779 23.537 23.0206L27.4646 25.9161H27.4359ZM16.2265 21.4152C15.7964 21.5585 15.5097 21.9312 15.4524 22.3899C14.0763 22.3326 13.1302 22.2752 11.8402 21.9599V21.8739L16.3125 18.921V21.3865H16.2265V21.4152ZM15.5958 23.1639C15.7391 23.422 15.9971 23.6226 16.2551 23.7086V30.1591H16.2265L11.6395 22.7913L11.6968 22.7052C13.0729 23.0206 14.2197 23.0779 15.6244 23.1639H15.5958ZM16.9432 23.7086C17.2012 23.6226 17.4306 23.422 17.5739 23.1639C18.9787 23.1066 20.7561 23.1066 21.9029 22.7339C21.9029 22.7626 21.9602 22.8199 21.9889 22.8486L16.9432 30.1304V23.7086ZM17.7172 22.4186C17.7172 22.4186 17.7172 22.2752 17.6599 22.1892C17.5452 21.8165 17.2872 21.5585 16.9719 21.4152V18.9496L21.7309 21.7592C21.7309 21.8452 21.7309 21.9312 21.7022 21.9885C20.4981 22.3326 18.8927 22.3899 17.7172 22.3899V22.4186ZM23.279 30.1591C22.9349 30.3024 22.6769 30.6178 22.5909 30.9618L17.6599 31.0765C17.6599 31.0765 17.6599 30.9905 17.6312 30.9618C17.6026 30.8471 17.5452 30.7611 17.4879 30.6751L22.5622 23.2786L23.2503 30.1878L23.279 30.1591ZM23.1069 32.3092L23.193 32.3666L23.3363 37.613C23.0209 37.785 22.8203 38.129 22.7629 38.473L17.6312 39.4477V39.3904L23.1069 32.3092ZM15.6244 30.6465C15.6244 30.6465 15.5384 30.8185 15.5097 30.9045L11.2381 30.2164V30.1304C11.0948 29.7577 10.8654 29.4997 10.5501 29.385L11.0661 23.3073L15.6244 30.6465ZM15.5097 31.7359C15.6244 32.0799 15.9111 32.3379 16.2265 32.4526L16.2838 38.645H16.2265L16.1405 38.7024L11.2668 31.0765L15.5384 31.7072L15.5097 31.7359ZM16.9145 32.4526C17.2012 32.3379 17.4306 32.1372 17.5739 31.8792L22.5909 31.7932L17.1725 38.7884C17.1725 38.7884 17.0579 38.7024 16.9719 38.7024L16.9145 32.4526ZM15.5958 39.2184C15.5958 39.2184 15.5384 39.3044 15.5384 39.3617L10.8368 37.957C10.8368 37.957 10.8368 37.699 10.7794 37.5843C10.6647 37.2116 10.4067 36.9536 10.0914 36.8389L10.3494 31.7072H10.4641C10.4641 31.7072 10.5787 31.6212 10.6361 31.5925L15.5671 39.2471L15.5958 39.2184ZM15.4524 39.9925C15.4524 39.9925 15.4524 40.1358 15.5097 40.1931C15.5384 40.2791 15.5671 40.3938 15.6244 40.4512L9.34599 47.819L9.94803 39.1037H10.034C10.2921 38.989 10.4927 38.817 10.6361 38.6164L12.1268 38.989L15.4237 39.9925H15.4524ZM17.4879 40.5372C17.4879 40.5372 17.6026 40.3365 17.6599 40.1931L22.9063 39.2184C23.0209 39.4477 23.193 39.6198 23.4223 39.7344C23.4223 42.4293 23.5943 45.0955 23.623 47.7903H23.5656L17.5166 40.5372H17.4879ZM22.9923 48.3064C22.9063 48.4497 22.8489 48.6217 22.8203 48.8224C21.5588 49.1951 19.6954 49.4818 17.5739 49.4531C17.4306 49.1664 17.1725 48.9657 16.8858 48.8797L16.9432 41.0245L23.0209 48.335L22.9923 48.3064ZM16.1691 48.8797C15.9111 48.9657 15.7104 49.1664 15.5958 49.3671C13.761 49.2811 11.8402 49.0804 10.0054 48.6791V48.5931C10.0054 48.5931 9.91936 48.3924 9.86202 48.3064L16.1978 40.9959L16.1405 48.8511L16.1691 48.8797ZM11.5248 21.2145C11.5248 21.2145 11.3241 21.0425 11.2094 20.9851L11.3528 18.9496C11.3528 18.9496 11.6108 18.8063 11.7255 18.7203C12.9582 18.577 14.1623 18.3476 15.6531 18.3476C15.6531 18.3763 15.7104 18.4049 15.7391 18.4336L11.5248 21.2145ZM21.6735 18.749C21.8455 19.007 22.1322 19.179 22.4476 19.2363V20.8991C22.4476 20.8991 22.1895 21.0138 22.1035 21.1285L17.7746 18.3763C18.9787 18.3476 20.4408 18.577 21.6735 18.7776V18.749ZM59.2008 26.9195H59.4588C59.6308 26.9195 59.8028 27.0055 59.9175 27.1202C60.0322 27.2349 60.1182 27.4069 60.1182 27.5789V29.9871C60.1182 30.1591 60.0322 30.3311 59.9175 30.4458C59.8028 30.5605 59.6308 30.6465 59.4588 30.6465H59.2008C59.0288 30.6465 58.8568 30.5605 58.7421 30.4458C58.6274 30.3311 58.5414 30.1591 58.5414 29.9871V27.5789C58.5414 27.4069 58.6274 27.2349 58.7421 27.1202C58.8568 27.0055 59.0288 26.9195 59.2008 26.9195ZM56.5919 22.5046H56.85C57.022 22.5046 57.194 22.5906 57.3087 22.7052C57.4233 22.8199 57.5093 22.9919 57.5093 23.1639V25.5721C57.5093 25.7441 57.4233 25.9161 57.3087 26.0308C57.194 26.1455 57.022 26.2315 56.85 26.2315H56.5919C56.4199 26.2315 56.2479 26.1455 56.1333 26.0308C56.0186 25.9161 55.9326 25.7441 55.9326 25.5721V23.1639C55.9326 22.9919 56.0186 22.8199 56.1333 22.7052C56.2479 22.5906 56.4199 22.5046 56.5919 22.5046ZM61.2936 22.4186H61.5516C61.7236 22.4186 61.8957 22.5046 62.0103 22.6192C62.125 22.7339 62.211 22.9059 62.211 23.0779V25.4861C62.211 25.6581 62.125 25.8301 62.0103 25.9448C61.8957 26.0595 61.7236 26.1455 61.5516 26.1455H61.2936C61.1216 26.1455 60.9496 26.0595 60.8349 25.9448C60.7202 25.8301 60.6342 25.6581 60.6342 25.4861V23.0779C60.6342 22.9059 60.7202 22.7339 60.8349 22.6192C60.9496 22.5046 61.1216 22.4186 61.2936 22.4186ZM73.4491 60.6912C74.2805 60.6912 74.9399 61.5513 74.9399 62.2967C74.9399 63.0421 74.5959 63.4721 74.1085 63.7301C73.3631 66.339 72.0157 68.6611 70.2669 70.5533C67.4574 73.5635 63.6158 75.4269 59.3728 75.4269H24.3397C24.0817 75.8283 23.795 76.0863 23.1356 76.0863C22.4762 76.0863 21.6448 75.3696 21.6448 74.4809C21.6448 73.5921 22.4476 72.8754 23.1356 72.8754C23.8237 72.8754 24.139 73.1908 24.397 73.6495H59.3728C63.1571 73.6495 66.5973 71.9867 69.0915 69.2918C70.5823 67.6864 71.729 65.7083 72.4171 63.5008C72.1304 63.2141 71.9297 63.0134 71.9297 62.3253C71.9297 61.6373 72.5891 60.7199 73.4205 60.7199L73.4491 60.6912ZM74.8252 53.266C75.2266 53.5527 75.4846 53.8681 75.4846 54.5848C75.4846 55.3015 74.8252 56.1902 73.9938 56.1902C73.1624 56.1902 72.5031 55.3015 72.5031 54.5848C72.5031 53.8681 72.7611 53.5527 73.1624 53.2374V17.2582C73.1624 15.5954 72.9044 14.0186 72.4457 12.5279C71.729 12.3845 71.213 11.7251 71.213 10.9224C71.213 10.0337 71.8723 9.31698 72.7037 9.31698C73.5351 9.31698 74.1945 10.0337 74.1945 10.9224C74.1945 11.2378 74.1085 11.4958 73.9938 11.7538C74.5672 13.4739 74.8539 15.3374 74.8539 17.2582V53.266H74.8252ZM15.2231 72.8467C15.8824 72.8467 16.7138 73.5635 16.7138 74.4522C16.7138 75.3409 15.9111 76.0576 15.2231 76.0576C14.535 76.0576 14.191 75.7423 13.933 75.2549C10.5501 74.7389 7.51119 73.0188 5.18903 70.5246C2.3795 67.5144 0.659379 63.3574 0.659379 58.7704V38.129C0.258018 37.8423 0 37.3549 0 36.8102C0 35.9215 0.659379 35.2048 1.49077 35.2048C2.32216 35.2048 2.98154 35.9215 2.98154 36.8102C2.98154 37.3549 2.72352 37.871 2.32216 38.1577V58.7991C2.32216 66.1096 7.33918 72.388 14.0476 73.4488C14.3343 73.0761 14.5637 72.8467 15.2231 72.8467Z" fill="white"/>
</mask>
<g mask="url(#mask0_33_170)">
<mask id="mask1_33_170" style="mask-type:luminance" maskUnits="userSpaceOnUse" x="0" y="0" width="76" height="77">
<path d="M75.4846 0.630371H0V76.115H75.4846V0.630371Z" fill="white"/>
</mask>
<g mask="url(#mask1_33_170)">
<rect width="80.0943" height="82.9705" transform="matrix(1 0 0 -1 -0.513306 79.8999)" fill="#3BC3B2"/>
</g>
</g>
<mask id="mask2_33_170" style="mask-type:luminance" maskUnits="userSpaceOnUse" x="83" y="19" width="119" height="51">
<path d="M136.205 32.2804H138.498V24.1672C138.498 24.1099 138.556 24.0525 138.613 24.0525C138.642 24.0525 138.67 24.0525 138.699 24.0812C139.043 24.3679 139.645 25.3713 140.276 26.432C141.021 27.6935 141.795 29.0122 142.053 29.0122H142.713C143.2 29.0122 143.458 29.0122 143.601 28.9262C143.745 28.8115 143.888 28.5822 144.146 28.1235C144.347 27.7795 144.605 27.3208 145.006 26.7474L145.379 26.1454C145.838 25.4 146.468 24.3679 146.784 24.1099C146.841 24.0812 146.927 24.1099 146.956 24.1385C146.956 24.1385 146.956 24.1959 146.956 24.2246L146.898 32.3378H149.192V19.9243H146.812C146.44 20.5836 145.809 21.5297 145.149 22.5044C144.519 23.4505 143.831 24.4826 143.343 25.3713C143.2 25.6293 142.999 26.002 142.77 26.2314C142.713 26.2887 142.627 26.2887 142.598 26.2314L138.556 19.8956H136.176V32.3091L136.205 32.2804ZM156.617 50.6857L156.904 50.7431H164.845L165.132 50.7144V48.5643L159.054 48.5069C158.996 48.5069 158.939 48.4496 158.939 48.3922V38.3009H156.646V50.7431L156.617 50.6857ZM83.7699 40.4224H87.5255C87.5255 40.4224 87.6401 40.5084 87.6401 40.5944V50.6571L89.9336 50.7144V40.5944C89.9336 40.5944 89.991 40.451 90.077 40.451H93.7752L93.8039 38.2435H83.7699V40.4224ZM194.574 50.6857H196.868C196.868 49.6823 196.868 48.9656 196.839 48.4209C196.839 47.5322 196.81 47.0735 196.896 46.6721C196.982 46.2421 197.212 45.8694 197.642 45.1527C197.871 44.78 198.158 44.2926 198.531 43.6332L201.598 38.2435H198.961C198.588 39.0176 198.129 39.7916 197.67 40.537C197.011 41.6551 196.38 42.7732 195.922 43.8626C195.922 43.9199 195.807 43.9486 195.75 43.9199H195.721C195.606 43.7766 195.205 43.0885 194.689 42.1998C193.829 40.709 192.739 38.6449 192.51 38.2149H189.815C190.217 39.0176 191.335 40.9097 192.367 42.6585C193.428 44.436 194.402 46.0987 194.488 46.3854C194.632 46.8441 194.603 48.7649 194.574 49.969V50.6284V50.6857ZM116.022 46.2708H113.757L113.671 46.6434C113.499 47.4462 113.385 47.9049 112.697 48.3062C112.353 48.5069 111.951 48.6216 111.521 48.6789C111.005 48.7363 110.46 48.7363 109.944 48.6789C107.794 48.4496 107.794 46.6435 107.794 44.6366V44.2926C107.794 42.2571 107.794 40.451 109.944 40.2217C110.46 40.1643 111.005 40.1357 111.521 40.2217C111.951 40.279 112.353 40.3937 112.697 40.5944C113.499 41.0817 113.585 41.7124 113.643 42.1711C113.671 42.4005 113.7 42.5725 113.815 42.6298H116.022V42.5152C115.907 40.8524 115.305 39.7056 114.331 38.9602C113.327 38.2149 111.922 37.8995 110.231 37.9568H109.83C108.97 38.0429 108.282 38.2722 107.708 38.6162C107.135 38.9602 106.705 39.4189 106.332 39.8776C105.443 41.0244 105.443 42.5152 105.443 44.1493V44.8373C105.443 46.4714 105.443 47.9335 106.303 49.0516C107.221 50.227 108.568 50.8577 109.973 51.0011C111.55 51.1731 113.213 50.7717 114.359 49.9404C114.761 49.6537 115.334 48.9656 115.678 48.1342C115.936 47.5608 116.079 46.9015 116.022 46.2708ZM95.352 50.6857H104.182V48.5643H97.7602C97.7602 48.5643 97.6455 48.4782 97.6455 48.3922V45.6114C97.6455 45.6114 97.7028 45.468 97.7602 45.468H103.523V43.3752H97.7602C97.7602 43.3752 97.6455 43.2892 97.6455 43.2032V40.5084C97.6455 40.5084 97.7315 40.3937 97.8175 40.3937H104.096V38.2435H95.352V50.6284V50.6857ZM117.972 50.6857H120.265V45.6401C120.265 45.5827 120.322 45.4967 120.408 45.4967H126.056C126.056 45.4967 126.171 45.5827 126.171 45.6687V50.7431H128.464V38.2722H126.171V43.1172C126.171 43.1172 126.113 43.2319 126.056 43.2319C125.311 43.3466 123.017 43.3179 121.469 43.2892H120.38C120.38 43.2892 120.265 43.2319 120.265 43.1459V38.2722H117.972V50.6857ZM170.407 40.2503C170.894 40.1357 171.553 40.107 172.184 40.1643C172.757 40.2217 173.273 40.3077 173.646 40.5084C174.076 40.7377 174.363 41.0817 174.535 41.5118C174.707 41.9418 174.764 42.4865 174.793 43.1172V44.1493C174.879 46.2134 174.936 48.1916 172.958 48.6216C172.499 48.7076 171.754 48.7649 171.066 48.7076C170.493 48.6503 169.977 48.5643 169.633 48.3636C169.174 48.1056 168.887 47.7615 168.715 47.3315C168.543 46.9015 168.486 46.3854 168.486 45.7261C168.486 45.382 168.486 45.0093 168.486 44.6653C168.4 42.6298 168.342 40.6517 170.435 40.2217L170.407 40.2503ZM170.12 37.9855C169.317 38.1289 168.6 38.4155 168.027 38.8456C167.396 39.3043 166.938 39.8776 166.651 40.5084C166.106 41.6838 166.135 43.6619 166.192 45.296V46.0701C166.192 46.3854 166.221 46.7008 166.278 46.9875C166.479 48.3349 167.11 49.367 168.056 50.0264C169.002 50.6857 170.292 51.0298 171.754 51.0011C172.213 51.0011 172.729 50.9438 173.245 50.8864C174.162 50.7431 174.85 50.4277 175.424 49.9977C175.997 49.5677 176.398 48.9943 176.714 48.3922C177.316 47.2455 177.258 45.1527 177.23 43.5186V42.8018C177.23 42.4578 177.172 42.1138 177.144 41.7984C176.914 40.451 176.312 39.4763 175.366 38.8169C174.42 38.1575 173.187 37.8422 171.754 37.8422C171.267 37.8422 170.751 37.8995 170.206 37.9855H170.12ZM147.787 40.2503C148.274 40.1357 148.934 40.107 149.564 40.1643C150.138 40.2217 150.683 40.3077 151.055 40.5084C151.485 40.7377 151.772 41.0817 151.944 41.5118C152.116 41.9418 152.173 42.4865 152.202 43.1172V44.1206C152.288 46.1848 152.374 48.1629 150.367 48.6216C149.908 48.7076 149.163 48.7649 148.475 48.7076C147.902 48.6503 147.386 48.5643 147.042 48.3636C146.583 48.0769 146.296 47.7615 146.124 47.3315C145.952 46.9015 145.895 46.3854 145.895 45.7261V44.694C145.78 42.6298 145.723 40.6804 147.816 40.2217L147.787 40.2503ZM147.5 37.9855C143.372 38.6449 143.458 42.3145 143.544 45.296V46.0987C143.544 46.4141 143.601 46.7295 143.63 47.0161C143.831 48.3636 144.461 49.3956 145.408 50.055C146.354 50.7144 147.644 51.0584 149.077 51.0298C149.564 51.0298 150.052 50.9724 150.568 50.9151C154.696 50.2844 154.61 46.4714 154.524 43.5186V42.8018C154.524 42.4578 154.467 42.1138 154.438 41.7984C154.209 40.451 153.607 39.4763 152.661 38.8169C151.715 38.1575 150.482 37.8422 149.048 37.8422C148.561 37.8422 148.045 37.8995 147.5 37.9855ZM189.557 44.0919L184.512 44.0346V46.0701H187.092C187.092 46.0701 187.206 46.1274 187.206 46.2134C187.178 47.2742 186.748 47.9335 186.088 48.3062C185.429 48.6789 184.512 48.7649 183.479 48.6789C181.186 48.5069 181.186 46.7868 181.186 44.6653V44.264C181.186 42.2858 181.186 40.5944 183.164 40.2503C183.594 40.1643 184.196 40.1357 184.741 40.193C185.2 40.2217 185.658 40.3077 185.974 40.4797C186.748 40.8524 186.92 41.3971 187.206 42.2571V42.3145H189.471C189.529 41.6551 189.357 41.0244 189.07 40.4797C188.669 39.7056 188.066 39.0749 187.579 38.7596C187.464 38.6736 187.321 38.6162 187.206 38.5302C186.232 38.0429 184.77 37.7562 183.336 37.8995C181.903 38.0715 180.498 38.6736 179.638 39.9923C179.552 40.1357 179.437 40.3077 179.38 40.451C178.807 41.5978 178.835 43.2319 178.892 44.7513V45.7547C178.892 47.7042 179.466 49.0803 180.498 49.9117C181.559 50.7431 183.107 51.0584 185.085 50.9724C186.002 50.9151 186.748 50.6857 187.35 50.313C187.952 49.9403 188.411 49.453 188.783 48.9369C189.615 47.7615 189.586 46.3281 189.557 44.78V44.1206V44.0919ZM130.93 50.6857H133.223L133.137 41.9991C133.137 41.9418 133.195 41.8558 133.252 41.8558C133.281 41.8558 133.338 41.8558 133.338 41.9131C133.567 42.1711 133.825 42.6872 134.083 43.2032C134.284 43.6046 134.485 43.9773 134.657 44.2353L139.043 50.7431H141.451V38.3009H139.158L139.215 46.9588C139.215 47.0161 139.158 47.1021 139.1 47.1021C139.043 47.1021 139.014 47.1022 138.986 47.0448C138.728 46.7008 138.498 46.2708 138.269 45.8407C138.068 45.468 137.896 45.0953 137.667 44.78L137.237 44.1493C136.864 43.6332 136.52 43.1172 136.176 42.6012C135.947 42.2285 135.488 41.5978 135.029 40.9384C134.313 39.9063 133.481 38.7596 133.252 38.2722H130.872V50.6857H130.93ZM173.245 32.3091L173.531 32.3665H175.538V19.8956H173.245V32.3378V32.3091ZM84.0279 32.3091L84.3146 32.3665H86.3214V19.8956H84.0279V32.3378V32.3091ZM161.634 22.0457H165.39C165.39 22.0457 165.504 22.1317 165.504 22.2177V32.3091L167.798 32.3665V22.2464C167.798 22.2464 167.855 22.1031 167.941 22.1031H171.639L171.668 19.8956H161.634V22.0744V22.0457ZM101.745 32.2804H104.039C104.039 29.4423 104.039 26.5754 104.039 23.7085V23.6512V22.1604C104.039 22.1031 104.096 22.0457 104.153 22.0457H110.088L110.059 19.8669H101.716V32.2804H101.745ZM105.529 27.4641H109.457V25.314H105.529V27.4641ZM110.833 64.4754C111.005 63.8733 111.292 63.1853 111.55 62.5259C111.951 61.5225 112.353 60.5478 112.783 59.5443C112.783 59.487 112.897 59.4583 112.955 59.487C112.983 59.487 113.012 59.5157 113.012 59.573L114.875 64.4754C114.875 64.4754 114.875 64.6187 114.789 64.6474H114.732H110.948C110.89 64.6474 110.833 64.59 110.833 64.5327V64.4754ZM106.561 69.263H109.056C109.17 68.9477 109.285 68.661 109.4 68.3456C109.514 68.0876 109.6 67.8296 109.686 67.5716C109.858 67.0555 109.944 66.8262 110.432 66.7402C110.804 66.6542 111.378 66.6828 112.467 66.7115C113.213 66.7115 114.187 66.7402 115.563 66.7402C115.621 66.7402 115.678 66.7689 115.678 66.8262L116.595 69.263H119.09L115.334 59.831L115.219 59.487C114.933 58.6843 114.302 56.9068 114.015 56.7922H111.664C111.492 56.8495 111.32 57.2795 111.177 57.7096C109.744 61.5512 108.11 65.4214 106.561 69.263ZM154.753 27.5501C154.925 26.9767 155.212 26.26 155.442 25.6293C155.872 24.7406 156.273 23.5652 156.674 22.6191C156.674 22.5618 156.789 22.5331 156.846 22.5618C156.875 22.5618 156.904 22.5904 156.904 22.6478L158.767 27.5501C158.767 27.5501 158.767 27.6935 158.681 27.7221H158.624H154.839C154.782 27.7221 154.696 27.6648 154.696 27.5788V27.5215L154.753 27.5501ZM150.453 32.3378H152.947C153.062 31.9938 153.32 31.191 153.607 30.589C153.779 30.1876 153.979 29.8436 154.151 29.8149H159.455C159.455 29.8149 159.57 29.8436 159.57 29.901L160.487 32.3378H162.981C162.781 31.7071 162.465 30.9617 162.179 30.2736L161.777 29.3276L158.566 21.2717L158.423 20.8703C158.251 20.4116 158.079 19.8956 157.878 19.8382H155.528C155.356 19.8956 155.184 20.3256 155.04 20.7556L154.897 21.157L151.686 29.1842L151.285 30.1303C150.998 30.847 150.683 31.5637 150.453 32.2804V32.3378ZM97.7028 64.7334V64.0167C97.5595 61.8378 97.4448 59.573 99.1936 58.885C99.5663 58.7416 100.197 58.6843 100.856 58.6843C101.516 58.6843 102.175 58.7703 102.577 58.885C103.035 59.057 103.408 59.315 103.637 59.7164C103.867 60.0891 104.01 60.5764 104.039 61.2071C104.039 61.7518 104.067 62.3539 104.067 62.9559C104.067 63.558 104.067 64.1887 104.039 64.7334C104.039 65.3641 103.895 65.8515 103.637 66.2242C103.408 66.5968 103.035 66.8835 102.577 67.0555C102.204 67.1989 101.516 67.2562 100.856 67.2562C100.197 67.2562 99.5663 67.1989 99.1936 67.0555C98.7349 66.8835 98.3622 66.5969 98.1329 66.1955C97.9035 65.7941 97.7602 65.3068 97.7315 64.7334H97.7028ZM99.3083 56.5341C98.5056 56.6488 97.7888 56.9642 97.2155 57.3942C96.5848 57.8529 96.1261 58.4263 95.8107 59.057C95.266 60.2324 95.2947 62.2105 95.352 63.8447V64.6187C95.352 64.9341 95.3807 65.2494 95.438 65.5361C95.6387 66.8835 96.2694 67.9156 97.2155 68.575C98.1615 69.2344 99.4516 69.5784 100.914 69.5497C101.372 69.5497 101.888 69.4924 102.405 69.435C106.533 68.8043 106.447 64.9914 106.361 62.0385V61.3218C106.361 60.9778 106.303 60.6624 106.275 60.3471C106.074 58.9996 105.443 57.9962 104.497 57.3369C103.551 56.6775 102.318 56.3621 100.856 56.3908C100.369 56.3908 99.853 56.4481 99.3083 56.5341ZM186.26 28.4102C186.146 28.9549 185.974 29.3562 185.658 29.6716C185.343 29.987 184.942 30.1876 184.397 30.2736C183.881 30.3596 183.164 30.417 182.505 30.3596C181.96 30.3023 181.444 30.1876 181.1 29.9583C180.641 29.6716 180.383 29.3276 180.211 28.8975C180.068 28.4675 180.011 27.9515 180.011 27.2634V26.4607C179.982 25.5146 179.953 24.3679 180.068 23.7085C180.154 23.2212 180.383 22.8198 180.699 22.4758C181.014 22.1604 181.444 21.9311 181.931 21.8451C182.476 21.759 183.164 21.7304 183.795 21.7877C184.34 21.8451 184.884 21.9597 185.257 22.1604C185.687 22.4184 185.945 22.7625 186.088 23.2212C186.232 23.6798 186.289 24.2246 186.289 24.8553V25.6006C186.318 26.5467 186.346 27.7795 186.232 28.3815L186.26 28.4102ZM181.616 19.6089C180.813 19.7236 180.097 20.0389 179.523 20.469C178.892 20.9277 178.434 21.501 178.118 22.1317C177.574 23.3072 177.602 25.2853 177.66 26.9194V27.7221C177.66 28.0375 177.688 28.3528 177.746 28.6395C177.946 29.987 178.577 31.019 179.523 31.6784C180.469 32.3378 181.759 32.6818 183.221 32.6531C183.68 32.6531 184.196 32.5958 184.712 32.5385C188.841 31.9078 188.755 28.0948 188.669 25.142V24.4252C188.669 24.0812 188.611 23.7659 188.583 23.4505C188.382 22.1031 187.751 21.0997 186.805 20.4403C185.859 19.7809 184.626 19.4656 183.164 19.4942C182.677 19.4942 182.161 19.5516 181.616 19.6376V19.6089ZM126.974 22.0457C127.547 22.0457 128.034 22.0457 128.464 22.0457H129.496C131.131 22.0457 131.847 22.3324 131.819 24.1959C131.819 26.088 131.045 26.346 129.382 26.346H128.464V28.3815H129.181C129.181 28.3815 129.267 28.4102 129.296 28.4388L131.962 32.3378H132.564C133.281 32.3665 134.198 32.3951 134.714 32.3378L131.761 28.1808C131.761 28.1808 131.761 28.0375 131.79 28.0088C132.736 27.5788 133.309 27.0914 133.653 26.4607C133.997 25.83 134.112 24.9986 134.112 23.8805C134.112 22.8485 133.825 21.9884 133.338 21.329C132.822 20.6696 132.105 20.2109 131.217 20.0103C130.901 19.9529 129.382 19.8956 127.862 19.8956C126.429 19.8956 124.967 19.8956 124.479 19.9529V32.3378H126.773V24.1099C126.773 24.1099 126.773 24.0525 126.773 24.0239V22.2177C126.773 22.2177 126.859 22.1031 126.916 22.1031L126.974 22.0457ZM122.817 58.971C123.39 58.971 123.877 58.971 124.307 58.971H125.339C126.974 58.971 127.69 59.2577 127.662 61.1211C127.662 63.0133 126.888 63.2713 125.225 63.2713H123.877V65.3068H125.024C125.024 65.3068 125.11 65.3354 125.139 65.3641L127.805 69.263H128.407C129.124 69.2917 130.041 69.3204 130.557 69.263C130.299 68.8903 129.726 68.0876 129.41 67.6003L129.21 67.2849C128.866 66.7975 128.579 66.3962 128.264 65.9661L127.633 65.0774C127.633 65.0774 127.633 64.9341 127.662 64.9054C128.608 64.4467 129.181 63.988 129.525 63.3573C129.869 62.7266 129.984 61.8952 129.984 60.7771C129.984 59.745 129.697 58.885 129.21 58.2256C128.694 57.5662 127.977 57.1075 127.088 56.9068C126.773 56.8495 125.253 56.7922 123.734 56.7922C122.301 56.7922 120.838 56.7922 120.351 56.8495V69.2344H122.645C122.645 65.8801 122.645 62.4972 122.702 59.1143C122.702 59.057 122.759 58.9996 122.817 58.9996V58.971ZM115.678 21.8451C116.165 21.7304 116.825 21.7017 117.456 21.759C118.029 21.7877 118.574 21.9024 118.946 22.1031C119.376 22.3324 119.663 22.6764 119.835 23.1065C120.007 23.5365 120.064 24.0812 120.093 24.7119V25.744C120.179 27.8081 120.265 29.7863 118.258 30.245C117.8 30.3596 117.054 30.3883 116.366 30.331C115.793 30.3023 115.277 30.1876 114.933 29.987C114.474 29.7003 114.187 29.3849 114.015 28.9549C113.843 28.5249 113.786 28.0088 113.786 27.3494C113.786 27.0054 113.786 26.6614 113.786 26.3174C113.7 24.2532 113.643 22.3038 115.735 21.8451H115.678ZM115.363 19.6089C111.234 20.2683 111.32 23.9379 111.406 26.9194V27.7221C111.406 28.0375 111.464 28.3528 111.492 28.6395C111.693 29.987 112.324 31.019 113.27 31.6784C114.216 32.3378 115.477 32.6818 116.94 32.6531C117.427 32.6531 117.914 32.5958 118.43 32.5385C122.559 31.9078 122.473 28.0948 122.387 25.142V24.4252C122.387 24.0812 122.329 23.7372 122.301 23.4218C122.071 22.0744 121.44 21.0997 120.523 20.4403C119.577 19.7809 118.344 19.4656 116.882 19.4942C116.395 19.4942 115.879 19.5516 115.334 19.6376L115.363 19.6089ZM134.485 59.0283H136.635C138.728 58.9996 140.161 59.315 140.161 61.8952C140.161 67.0555 140.046 67.0555 135.373 67.0269H134.485C134.485 67.0269 134.37 66.9695 134.37 66.8835V59.143C134.37 59.143 134.427 58.9996 134.485 58.9996V59.0283ZM132.048 69.2344C132.879 69.3204 134.972 69.2917 136.406 69.2917H137.438C138.986 69.2917 140.276 68.8043 141.136 67.9443C141.996 67.0842 142.483 65.8515 142.483 64.3033V63.558C142.512 60.8631 142.541 58.2543 139.473 57.1075C139.014 56.9355 137.61 56.8208 136.119 56.7635C134.485 56.7062 132.765 56.7348 132.048 56.8208V69.2344ZM190.733 32.2804H193.026L192.94 23.5938C192.94 23.5365 192.997 23.4505 193.055 23.4505C193.083 23.4505 193.141 23.4505 193.141 23.5078C193.37 23.7659 193.628 24.2819 193.886 24.7979C194.087 25.1993 194.288 25.572 194.46 25.83L197.871 30.8183C198.244 31.3344 198.617 31.8504 198.875 32.3378H201.254V19.8956H198.961L199.018 28.5535C199.018 28.6109 198.961 28.6969 198.903 28.6969C198.846 28.6969 198.817 28.6969 198.789 28.6395C198.531 28.2955 198.301 27.8655 198.072 27.4354C197.871 27.0628 197.699 26.6901 197.47 26.3747L197.04 25.744C196.667 25.228 196.323 24.7119 196.008 24.2246C195.778 23.8519 195.348 23.2211 194.861 22.5618C194.144 21.5297 193.313 20.3543 193.083 19.8956H190.704V32.3091L190.733 32.2804ZM88.7869 32.2804H91.0804L90.9944 23.5938C90.9944 23.5365 91.0517 23.4505 91.109 23.4505C91.1377 23.4505 91.1951 23.4505 91.1951 23.5078C91.4244 23.7659 91.6824 24.2819 91.9404 24.7979C92.1411 25.1993 92.3418 25.572 92.5138 25.83L96.9001 32.3378H99.3083V19.8956H97.0148L97.0721 28.5535C97.0721 28.6109 97.0148 28.6969 96.9575 28.6969C96.9001 28.6969 96.8714 28.6969 96.8428 28.6395C96.5848 28.2955 96.3554 27.8655 96.1261 27.4354C95.9254 27.0628 95.7534 26.6901 95.524 26.3747L95.094 25.744C94.7213 25.228 94.3773 24.7119 94.0332 24.1959C93.8039 23.8232 93.3739 23.2212 92.8865 22.5331C92.1411 21.501 91.3384 20.3256 91.0804 19.8382H88.7009V32.2518L88.7869 32.2804ZM86.0347 66.9409V64.16C86.0347 64.16 86.092 64.0167 86.178 64.0167H89.5036C90.077 64.0167 90.5643 64.074 90.937 64.2747C91.3097 64.504 91.5391 64.8767 91.5391 65.5074C91.5391 66.1668 91.3384 66.5395 90.9657 66.7689C90.6217 66.9982 90.1056 67.0555 89.5036 67.0555H86.178C86.178 67.0555 86.0347 66.9982 86.0347 66.9122V66.9409ZM86.2354 58.971C86.6941 58.971 87.1241 58.971 87.5255 58.971H88.4429C90.0196 58.9136 91.195 59.1143 91.2237 60.4331C91.2237 61.7232 90.2776 61.9812 88.8442 61.9812C88.4429 61.9812 88.0128 61.9812 87.5541 61.9812C87.1241 61.9812 86.6654 61.9525 86.178 61.9525C86.1207 61.9525 86.0347 61.8952 86.0347 61.8092L86.092 59.1143C86.092 59.1143 86.1494 58.9996 86.2067 58.9996L86.2354 58.971ZM83.7699 69.2344C84.6586 69.3204 87.2388 69.2917 88.9302 69.2917H90.077C91.0517 69.2917 91.8544 69.091 92.4565 68.7183C93.0585 68.3456 93.4599 67.8009 93.6606 67.0555C93.9186 66.1381 93.8612 65.2494 93.6032 64.5327C93.3165 63.7873 92.8005 63.1853 92.1411 62.9559C92.0838 62.9559 92.0264 62.8699 92.0551 62.7839C92.1698 62.5832 92.3131 62.4399 92.4565 62.2965C92.9152 61.8665 93.4599 61.3505 93.4312 59.831C93.4312 59.2003 93.2592 58.6556 93.0012 58.2256C92.7145 57.7382 92.3131 57.3942 91.8544 57.1362C91.023 56.7062 89.8476 56.7348 88.7582 56.7635H87.9842H86.8947C85.8053 56.7635 84.4292 56.7062 83.7125 56.8208V69.2344H83.7699Z" fill="white"/>
</mask>
<g mask="url(#mask2_33_170)">
<mask id="mask3_33_170" style="mask-type:luminance" maskUnits="userSpaceOnUse" x="83" y="19" width="119" height="51">
<path d="M201.598 19.4368H83.7699V69.5783H201.598V19.4368Z" fill="white"/>
</mask>
<g mask="url(#mask3_33_170)">
<rect width="126.601" height="56.4199" transform="matrix(1 0 0 -1 80.5303 73.4775)" fill="#3BC3B2"/>
</g>
</g>
<path fill-rule="evenodd" clip-rule="evenodd" d="M83.6266 13.13H84.6873V11.4673L85.3467 10.6072L87.0095 13.13H88.3282L86.0634 9.74714L88.0989 7.13829H86.7228L85.6334 8.54305L84.63 9.86181V7.13829H83.5692V13.13H83.6266ZM92.9152 13.13H93.9759V7.13829H92.9152V9.51779H90.5357V7.13829H89.4463V13.13H90.5357V10.6932H92.9152V13.13ZM97.1868 13.13H98.2476V11.0946L100.283 7.13829H99.0503L98.2189 8.80107L97.7315 9.86181L97.2442 8.80107L96.4128 7.13829H95.1514L97.2155 11.0946V13.13H97.1868ZM101.458 13.13H104.268C105.185 13.13 105.787 12.4993 105.787 11.5533V11.4386C105.787 10.7505 105.501 10.2632 105.042 10.0052C105.443 9.77581 105.644 9.31711 105.644 8.74373V8.65773C105.644 7.769 105.099 7.13829 104.239 7.13829H101.43V13.13H101.458ZM104.153 11.9833H102.519V10.6645H104.153C104.44 10.6645 104.698 10.8652 104.698 11.2666V11.3813C104.698 11.7539 104.44 11.9833 104.153 11.9833ZM104.039 9.57512H102.519V8.3137H104.039C104.325 8.3137 104.583 8.51438 104.583 8.88708V9.00175C104.583 9.37444 104.325 9.57512 104.039 9.57512ZM107.221 13.13H111.034V11.9833H108.282V10.6645H110.747V9.54646H108.282V8.25637H111.005V7.10962H107.221V13.1014V13.13ZM112.553 7.16696V13.1587H113.643V11.2666H114.56L115.735 13.1587H117.026L116.022 11.5533L115.678 11.0946C116.366 10.8079 116.71 10.2632 116.71 9.43178V8.94441C116.71 7.94101 115.993 7.16696 115.076 7.16696H112.553ZM114.961 10.1485H113.643V8.28503H114.961C115.42 8.28503 115.649 8.54305 115.649 9.05909V9.34578C115.649 9.86181 115.42 10.1485 114.99 10.1485H114.961ZM119.921 7.16696V13.1587H120.982V11.4386H122.559C123.447 11.4386 124.193 10.6072 124.193 9.57512V8.91574C124.193 7.91234 123.476 7.13829 122.559 7.13829H119.921V7.16696ZM120.982 8.28503H122.415C122.874 8.28503 123.103 8.54305 123.103 9.08776V9.48912C123.103 10.0052 122.874 10.2632 122.415 10.2632H120.982V8.28503ZM124.307 13.13H125.483L125.913 11.926H128.178L128.608 13.13H129.783L127.662 7.13829H126.515L124.365 13.13H124.307ZM126.228 10.8365L127.031 8.48572L127.834 10.8365H126.228ZM130.901 13.13H131.991V11.4673L132.65 10.6072L134.313 13.13H135.632L133.367 9.74714L135.402 7.13829H134.026L132.937 8.54305L131.933 9.86181V7.13829H130.844V13.13H130.901ZM140.161 13.13H141.251V7.13829H140.161V9.51779H137.782V7.13829H136.721V13.13H137.782V10.6932H140.161V13.13ZM144.203 13.13H145.264V8.28503H146.898V7.13829H142.569V8.28503H144.203V13.13ZM150.253 13.2734H150.683C151.858 13.2734 152.689 12.4133 152.689 11.0086V7.16696H151.6V10.9799C151.6 11.7826 151.227 12.1266 150.597 12.1266H150.281C149.65 12.1266 149.278 11.7826 149.278 10.9799V7.16696H148.188V11.0086C148.188 12.3847 149.048 13.2734 150.195 13.2734H150.253ZM154.266 13.13H155.356V10.5785L155.298 8.88708L155.757 9.86181L157.735 13.13H158.796V7.13829H157.735V9.6898L157.792 11.3813L157.334 10.4352L155.327 7.16696H154.237V13.1587L154.266 13.13ZM160.487 13.13H161.548V11.4673L162.207 10.6072L163.87 13.13H165.189L162.924 9.74714L164.96 7.13829H163.583L162.494 8.54305L161.491 9.86181V7.13829H160.43V13.13H160.487ZM169.776 13.13H170.837V7.13829H169.776V9.51779H167.396V7.13829H166.336V13.13H167.396V10.6932H169.776V13.13ZM173.99 13.13H175.051L175.94 10.6072L176.226 9.66113L176.513 10.6072L177.373 13.13H178.434L180.383 7.13829H179.237L178.29 10.0338L177.889 11.4959L176.427 7.13829H175.252L175.653 8.25637L174.506 11.4959L174.105 10.0338L173.187 7.13829H172.041L173.99 13.13ZM180.355 13.13H181.53L181.96 11.926H184.225L184.655 13.13H185.83L183.709 7.13829H182.562L180.412 13.13H180.355ZM182.304 10.8365L183.107 8.48572L183.91 10.8365H182.304Z" fill="#3BC3B2"/>
</svg>
