<svg width="911" height="882" viewBox="0 0 911 882" fill="none" xmlns="http://www.w3.org/2000/svg">
<path opacity="0.19" fill-rule="evenodd" clip-rule="evenodd" d="M113.275 170.145C110.196 182.513 115.067 191.243 123.187 194.713C127.779 211.166 122.739 374.579 124.139 418.23C124.419 427.296 132.819 431.717 138.082 436.81C143.738 442.294 147.826 447.555 153.594 452.983L265.925 566.421L266.429 799.62C260.437 805.832 252.541 811.092 255.061 825.363C256.741 835.101 264.805 842.6 276.284 842.991C288.492 843.383 296.835 836.22 299.187 826.762C303.051 811.484 293.811 805.496 288.1 799.564L287.876 691.667C287.876 655.682 287.764 619.698 287.876 583.714C287.876 547.785 290.788 560.097 247.501 516.11L166.137 434.795C146.09 415.768 145.754 416.663 145.866 400.937L145.866 239.707C145.866 230.585 145.978 221.463 145.866 212.341C145.754 197.791 143.738 198.966 151.466 191.131C178.121 164.045 125.427 131.082 113.387 170.145M408.55 445.54C406.422 453.375 376.296 479.398 368.064 488.24C363.136 493.557 358.992 497.698 353.729 502.735C337.153 518.628 337.601 513.032 337.657 543.42L337.545 828.441C332.282 834.765 323.826 839.746 325.898 854.128C329.202 876.961 363.36 880.599 369.744 856.759C373.496 842.544 365.04 834.317 359.104 828.441L358.88 549.184C358.88 534.466 356.473 532.115 364.48 523.497C374.728 512.472 385.311 502.455 396.063 491.71C439.629 448.17 430.053 469.381 430.109 400.882C430.109 359.133 430.165 317.384 430.109 275.636C430.109 266.066 428.429 253.81 433.245 248.158C438.733 241.722 444.165 239.427 441.477 225.94C435.261 194.657 387.495 209.543 397.183 237.357C400.655 247.262 408.606 246.031 408.774 256.888L408.662 445.596L408.55 445.54ZM408.718 48.2568C410.342 66.7806 409.502 102.205 409.502 120.226C409.502 145.241 406.422 136.959 436.773 167.179L549.888 282.911L550.224 369.262L608.349 427.52C618.429 438.153 620.949 435.243 620.949 455.67L620.949 519.468C613.837 526.407 603.813 534.578 611.877 550.639C624.925 576.494 667.875 555.06 651.691 528.198C641.22 510.793 642.732 531.78 642.676 487.289L642.676 458.524C642.676 416.607 644.468 438.657 609.581 398.923L586.51 375.922C569.263 357.006 572.007 372.844 571.951 324.66L571.951 284.366C572.231 267.129 570.495 273.677 547.536 249.389C544.064 245.695 542.328 242.505 538.912 239.26C515.337 217.21 492.211 189.9 469.7 168.858L430.949 128.9L430.837 61.2403C430.837 51.8384 429.381 50.6073 434.477 45.2348C461.86 16.3018 414.15 -13.4707 398.975 19.5476C392.815 32.9229 402.95 43.1641 408.718 48.3128L408.718 48.2568ZM337.489 58.8898C338.273 73.4962 339.561 186.598 335.082 191.859C326.234 202.156 268.333 256.216 266.541 261.309L266.541 445.596C261.389 453.767 251.869 456.565 255.173 472.738C259.429 493.725 293.363 496.915 299.131 474.081C303.275 457.796 293.699 452.536 288.268 445.596C286.644 441.623 287.876 309.549 287.876 292.984C287.876 266.458 282.892 274.908 314.698 243.569C321.53 236.797 327.466 231.089 334.13 224.149C365.264 191.635 358.88 209.767 358.824 133.209C358.824 123.08 357.424 62.4715 359.832 58.2742C361.288 55.7559 373.776 47.3614 369.744 31.2999C363.808 7.68341 330.322 10.2018 325.954 32.9788C323.21 47.2495 332.506 53.4054 337.433 58.8898L337.489 58.8898ZM762.958 196.504C765.31 232.544 763.07 317.104 763.07 362.043C763.07 392.263 762.23 387.338 778.246 403.12C784.965 409.78 831.723 455.558 833.123 459.139C834.635 463.113 834.467 558.754 833.795 569.331C829.147 575.767 820.02 581.139 822.54 595.018C824.164 604.084 832.955 613.038 843.875 613.374C857.146 613.766 864.258 606.547 866.834 596.417C870.194 583.042 861.57 574.592 856.026 569.331C854.514 553.437 855.802 531.22 855.746 514.655C855.746 495.907 855.858 477.215 855.858 458.468C855.858 444.869 845.163 441.007 832.227 427.072L804.341 398.755C799.413 394.054 794.933 390.416 790.173 385.548C783.677 378.944 785.021 375.25 785.133 363.498C785.357 337.195 783.341 201.484 785.413 196.504C786.589 193.705 808.652 178.371 788.605 158.225C775.558 145.185 756.015 156.042 752.263 168.13C747.503 183.52 757.639 190.683 763.014 196.504L762.958 196.504ZM550.224 799.676C550.224 807.343 552.24 824.524 549.048 830.344C546.024 835.772 538.576 838.179 538.408 850.099C537.848 881.326 586.566 880.711 583.43 847.133C582.198 833.925 574.079 834.821 572.231 828.049C570.663 822.229 572.063 557.635 572.007 517.565C572.007 511.689 570.831 491.206 573.071 487.233C575.311 483.204 577.327 485.386 580.687 479.174C592.446 457.516 567.639 434.124 548.6 448.506C526.649 465.015 544.792 482.252 550 488.8C551.568 507.604 550.112 532.563 550.168 552.15L550.168 799.732L550.224 799.676ZM430.389 566.141C468.3 534.802 405.302 502.735 397.015 540.622C393.767 555.452 403.622 561.328 408.438 567.932C409.558 593.395 405.75 629.212 408.774 652.94C409.726 660.439 442.597 689.988 449.484 697.151C483.699 732.688 479.555 720.04 479.555 752.219C479.555 779.473 480.899 810.421 479.387 837.171C474.571 844.055 464.884 849.371 468.132 864.258C473.003 886.643 505.594 888.098 511.978 865.433C516.009 850.994 507.106 843.831 501.226 838.738C498.314 817.528 500.778 775.668 500.778 752.275C500.778 745.056 500.778 737.892 500.778 730.673C501.002 711.086 496.858 716.459 475.355 692.954L432.013 649.974C428.317 643.93 429.381 577.893 430.389 566.197L430.389 566.141ZM195.536 133.153L195.704 378.216C189.656 384.148 182.096 389.465 184.28 403.792C187.864 427.464 223.03 427.184 228.63 405.023C232.382 390.193 222.415 383.981 217.431 377.937L216.983 131.754C243.022 112.726 223.199 87.8788 205.727 88.3265C194.864 88.6063 186.408 96.6091 184.448 106.011C181.256 121.345 190.328 126.661 195.592 133.209L195.536 133.153ZM621.005 89.2219L621.005 309.158C596.702 327.402 613.725 352.641 633.436 351.634C643.18 351.13 652.699 342.512 654.323 333.893C656.955 319.735 648.611 313.355 642.956 307.423L642.788 90.0614C649.787 83.4577 656.283 79.1485 654.435 64.5981C653.315 55.588 643.964 46.8577 633.604 46.2981C621.229 45.6265 612.885 53.0137 610.141 62.4155C605.885 77.0219 615.405 83.5137 621.005 89.3339L621.005 89.2219ZM763.014 505.869L763.014 693.178C735.24 720.432 762.958 736.661 773.262 736.885C784.685 737.109 793.813 728.267 795.941 720.376C799.581 706.721 791.125 698.886 785.469 693.234C782.669 672.304 785.077 631.394 785.077 608.281C785.077 597.201 783.005 510.458 786.645 505.085C789.445 500.944 793.421 499.041 795.605 492.605C800.085 479.342 790.453 466.918 782.166 464.12C757.415 455.67 737.648 487.345 763.014 505.925L763.014 505.869ZM123.523 694.801C117.643 700.229 109.58 707.56 113.835 721.551C115.067 725.692 119.771 730.393 121.955 732.24C133.659 742.09 154.21 734.982 157.625 720.096C161.601 702.803 150.234 700.117 146.818 693.122C144.802 689.092 145.082 546.666 146.818 543.476C149.058 539.503 160.761 533.906 157.849 517.845C152.138 486.114 102.02 500.44 114.339 531.108C116.747 537.152 121.619 539.559 123.187 542.581C125.483 547.114 125.315 682.321 123.523 694.801ZM188.816 599.943C189.096 600.167 189.544 600.559 189.712 600.726L191.504 602.181C191.504 602.181 192.064 602.685 192.344 602.909L195.76 606.659C197.496 610.128 197.384 748.805 196.824 753.562C196.096 759.942 191.504 763.076 187.528 766.602C176.105 777.626 189.488 806.951 213.175 799.956C220.455 797.829 228.07 789.659 229.134 781.04C230.87 767.049 221.911 763.3 217.319 756.528L216.983 608.281C221.463 602.07 229.974 598.04 229.358 585.225C228.182 560.992 196.6 558.474 187.808 573.025C183.048 580.915 181.76 593.675 188.872 599.999L188.816 599.943ZM30.0072 511.297C35.6069 515.494 40.7586 521.147 45.9104 526.127C56.662 536.592 53.6941 535.529 53.6941 559.258L53.6941 599.551C48.7103 605.819 39.4707 611.863 42.2146 624.735C47.4223 649.023 79.8449 648.351 85.9486 627.869C91.0444 610.8 80.7969 607.218 75.8691 599.551L75.5331 526.351C66.5735 516.446 58.7899 509.618 49.7743 500.608C40.4227 491.262 53.0781 475.984 30.3991 466.862C9.34404 458.468 -10.143 488.632 8.39213 506.037C13.7679 511.073 20.9916 510.793 30.0631 511.185L30.0072 511.297ZM550.112 58.0504C551.568 86.3118 549.832 117.483 550.224 146.137C550.336 157.105 551.792 157.161 545.744 163.485C541.992 167.347 538.408 172.495 538.352 179.267C537.96 208.927 582.254 209.599 583.598 180.722C583.99 172.663 581.639 168.466 577.775 164.493C571.279 157.777 571.783 160.295 571.951 147.592C572.343 118.435 570.663 87.3192 572.119 58.4981C577.439 52.2302 585.838 47.5852 583.206 32.4752C581.583 22.9614 572.679 14.8467 561.535 14.8467C535.777 14.8467 531.633 44.0596 550.112 58.0504ZM833.795 310.221C833.795 368.255 832.395 351.522 853.282 374.187C875.009 397.748 859.666 399.986 874.505 410.563C889.121 420.972 907.544 409.5 910.008 396.628C913.256 379.727 898.36 364.841 881.281 369.934C877.417 368.423 857.426 349.115 856.194 345.646C854.962 342.12 855.298 300.092 855.914 294.439C862.13 287.892 871.818 278.882 865.602 264.051C862.13 255.713 849.979 246.703 838.219 251.46C829.091 255.097 819.572 264.275 822.652 278.322C823.884 283.862 828.195 288.339 830.995 291.529C835.475 296.622 833.795 302.274 833.795 310.333L833.795 310.221ZM692.402 671.296L692.402 756.472C686.69 762.516 678.01 768.337 680.138 782.104C683.722 805.328 719.168 807.455 724.712 784.51C728.632 768.169 719.112 764.027 714.073 756.472L713.849 681.593C713.569 667.659 715.193 671.52 720.792 663.741C729.528 651.709 725.272 636.431 714.521 630.835C701.305 623.951 688.258 629.492 683.05 638.949C674.202 655.011 685.57 663.909 692.402 671.296ZM53.6941 402.337C16.3438 437.873 76.5971 464.4 86.4527 430.094C90.5965 415.544 81.3009 410.227 75.9251 404.575L75.5331 314.138C80.5729 309.773 86.7327 305.52 87.2926 295.782C87.8526 285.765 82.3649 279.889 77.3251 275.915C61.3658 263.38 41.7667 279.329 41.8227 294.383C41.8227 304.569 47.8144 309.214 51.9582 314.194C56.382 319.455 53.9741 334.061 53.9741 341.84C53.9741 360.084 55.374 384.876 53.75 402.281L53.6941 402.337ZM337.433 314.53L337.657 380.735C337.657 395.901 339.617 392.207 331.89 400.266C320.634 412.074 325.786 430.262 337.489 436.194C362.464 448.898 380.271 418.342 364.816 400.322C355.689 389.689 358.824 392.879 358.992 367.751L358.992 314.474C396.903 277.874 334.018 250.676 326.234 287.78C323.098 302.554 332.338 308.43 337.545 314.474L337.433 314.53ZM430.445 838.906C429.213 827.49 430.053 812.883 429.997 801.131C429.997 791.226 427.085 772.534 432.797 766.098C438.061 760.11 445.957 752.723 440.357 739.459C433.693 723.622 407.15 716.962 397.575 740.747C392.311 753.786 400.879 760.446 406.198 766.322C411.63 772.254 408.886 824.58 408.382 837.115C403.678 842.88 393.263 850.491 396.735 863.81C406.534 901.361 467.124 872.092 430.445 838.906ZM266.205 82.3944L266.485 146.137C260.661 152.181 252.541 157.329 255.005 171.88C256.517 180.778 265.813 189.564 276.284 189.844C289.276 190.18 296.835 183.408 299.299 173.335C303.107 157.945 293.643 152.181 287.876 146.472C287.54 128.676 288.156 110.712 287.876 92.8595C287.652 78.0852 290.452 83.3458 296.499 74.1678C300.867 67.5082 301.315 59.3935 297.507 51.5586C291.123 38.3513 272.196 34.4898 260.997 45.9623C248.565 58.7219 255.117 74.4476 266.205 82.3944ZM479.163 43.7797L479.611 85.6403C473.507 92.5238 465.108 98.0082 468.02 112.782C469.867 121.96 478.491 130.243 489.467 130.523C504.362 130.859 527.377 111.719 501.058 87.3192L500.778 43.9476C527.713 21.5623 504.194 1.24764 490.923 0.855892C477.539 0.464149 452.172 19.7155 479.163 43.7797ZM479.611 463.393L479.611 463.784L479.387 476.32L479.499 505.925L479.499 507.212L479.387 519.188L479.051 601.454C473.507 607.834 465.668 612.311 467.852 626.861C469.307 636.543 478.211 644.77 489.467 644.825C501.562 644.881 509.906 638.11 512.202 627.981C516.065 611.08 504.642 608.281 501.17 600.67L500.666 511.689C501.506 505.645 503.634 496.467 501.002 490.423L500.778 442.798L500.778 314.474C507.218 308.878 516.177 302.778 511.922 287.668C505.65 265.394 472.219 267.185 468.076 288.955C464.996 305.072 474.347 308.374 479.219 316.041L479.499 444.141L479.611 463.448L479.611 463.393ZM692.122 133.153C694.137 264.275 692.29 406.142 692.458 539.111C692.458 560.041 685.458 559.481 660.539 584.833C647.996 597.648 634.332 612.423 621.341 624.063L621.061 800.403C614.621 806.28 606.333 811.54 609.917 826.426C612.269 836.108 619.213 843.103 632.036 842.992C643.516 842.936 652.139 835.604 654.155 826.035C657.291 811.316 648.555 806.392 643.292 799.62L642.9 631.842C649.507 625.854 654.043 620.202 659.979 614.493C666.755 608.002 671.57 603.357 678.01 596.473L713.681 560.657L713.905 131.474C738.711 110.712 719.28 86.9834 701.193 88.2146C692.01 88.8862 682.434 98.1201 680.362 106.291C676.89 119.89 687.194 127.389 692.122 133.041L692.122 133.153Z" fill="#33679A" fill-opacity="0.18"/>
</svg>
