<svg width="35" height="34" viewBox="0 0 35 34" fill="none" xmlns="http://www.w3.org/2000/svg">
<path d="M23.1552 2.40189C23.1996 2.25583 23.2151 2.10236 23.2009 1.95023C23.1867 1.7981 23.143 1.6503 23.0723 1.51526C23.0017 1.38022 22.9054 1.26059 22.7891 1.1632C22.6727 1.06581 22.5385 0.992563 22.3942 0.947646C22.2499 0.902729 22.0982 0.88702 21.9479 0.901415C21.7976 0.915811 21.6515 0.960029 21.5181 1.03155C21.3847 1.10306 21.2665 1.20048 21.1702 1.31823C21.074 1.43598 21.0016 1.57176 20.9572 1.71781L11.7605 31.9661C11.6709 32.2611 11.7007 32.58 11.8434 32.8527C11.9862 33.1254 12.2301 33.3296 12.5216 33.4203C12.813 33.511 13.1282 33.4809 13.3977 33.3364C13.6672 33.192 13.8689 32.9451 13.9585 32.6502L23.1552 2.40189ZM10.2247 8.21654C10.3317 8.32461 10.4167 8.45299 10.4746 8.59433C10.5326 8.73567 10.5624 8.88719 10.5624 9.04022C10.5624 9.19325 10.5326 9.34477 10.4746 9.48611C10.4167 9.62745 10.3317 9.75584 10.2247 9.8639L2.98919 17.184L10.2247 24.5041C10.4406 24.7225 10.5618 25.0188 10.5618 25.3278C10.5618 25.6367 10.4406 25.933 10.2247 26.1514C10.0088 26.3699 9.71606 26.4926 9.41078 26.4926C9.10551 26.4926 8.81274 26.3699 8.59688 26.1514L0.54977 18.0077C0.442713 17.8996 0.357775 17.7712 0.299821 17.6299C0.241867 17.4885 0.212036 17.337 0.212036 17.184C0.212036 17.031 0.241867 16.8794 0.299821 16.7381C0.357775 16.5968 0.442713 16.4684 0.54977 16.3603L8.59688 8.21654C8.70366 8.10819 8.83052 8.02224 8.97018 7.96359C9.10985 7.90494 9.25957 7.87475 9.41078 7.87475C9.56199 7.87475 9.71172 7.90494 9.85138 7.96359C9.99104 8.02224 10.1179 8.10819 10.2247 8.21654ZM24.6911 8.21654C24.584 8.32461 24.4991 8.45299 24.4411 8.59433C24.3832 8.73567 24.3534 8.88719 24.3534 9.04022C24.3534 9.19325 24.3832 9.34477 24.4411 9.48611C24.4991 9.62745 24.584 9.75584 24.6911 9.8639L31.9266 17.184L24.6911 24.5041C24.5842 24.6122 24.4994 24.7406 24.4416 24.882C24.3837 25.0233 24.354 25.1748 24.354 25.3278C24.354 25.4807 24.3837 25.6322 24.4416 25.7735C24.4994 25.9149 24.5842 26.0433 24.6911 26.1514C24.798 26.2596 24.9249 26.3454 25.0645 26.4039C25.2042 26.4625 25.3538 26.4926 25.505 26.4926C25.6561 26.4926 25.8058 26.4625 25.9455 26.4039C26.0851 26.3454 26.212 26.2596 26.3189 26.1514L34.366 18.0077C34.4731 17.8996 34.558 17.7712 34.616 17.6299C34.6739 17.4885 34.7037 17.337 34.7037 17.184C34.7037 17.031 34.6739 16.8794 34.616 16.7381C34.558 16.5968 34.4731 16.4684 34.366 16.3603L26.3189 8.21654C26.2121 8.10819 26.0853 8.02224 25.9456 7.96359C25.8059 7.90494 25.6562 7.87475 25.505 7.87475C25.3538 7.87475 25.2041 7.90494 25.0644 7.96359C24.9247 8.02224 24.7979 8.10819 24.6911 8.21654Z" fill="white"/>
</svg>
