<svg width="31" height="33" viewBox="0 0 31 33" fill="none" xmlns="http://www.w3.org/2000/svg">
<path fill-rule="evenodd" clip-rule="evenodd" d="M30.1357 0.737813C30.281 0.827642 30.4008 0.95308 30.484 1.10223C30.5672 1.25139 30.6109 1.41931 30.611 1.59009V31.6706C30.611 31.9365 30.5053 32.1915 30.3173 32.3796C30.1293 32.5676 29.8742 32.6732 29.6083 32.6732H23.5922C23.3263 32.6732 23.0712 32.5676 22.8832 32.3796C22.6952 32.1915 22.5895 31.9365 22.5895 31.6706V28.6625H20.5842V31.6706C20.5842 31.9365 20.4785 32.1915 20.2905 32.3796C20.1024 32.5676 19.8474 32.6732 19.5815 32.6732H1.5332C1.26727 32.6732 1.01224 32.5676 0.824196 32.3796C0.636157 32.1915 0.530518 31.9365 0.530518 31.6706V20.6411C0.530677 20.4307 0.596992 20.2257 0.720075 20.0551C0.843157 19.8845 1.01677 19.757 1.21635 19.6905L12.5627 15.9084V9.61155C12.5627 9.4255 12.6145 9.24311 12.7122 9.0848C12.81 8.92649 12.9498 8.7985 13.1162 8.71515L29.1591 0.693695C29.3121 0.617102 29.4822 0.580946 29.6531 0.588668C29.8241 0.596391 29.9902 0.647735 30.1357 0.737813ZM12.5627 18.022L2.53588 21.363V30.6679H12.5627V18.022ZM14.5681 30.6679H18.5788V27.6598C18.5788 27.3939 18.6844 27.1389 18.8725 26.9508C19.0605 26.7628 19.3155 26.6571 19.5815 26.6571H23.5922C23.8581 26.6571 24.1132 26.7628 24.3012 26.9508C24.4892 27.1389 24.5949 27.3939 24.5949 27.6598V30.6679H28.6056V3.21243L14.5681 10.2312V30.6679Z" fill="white"/>
<path d="M4.54125 22.6464H6.54661V24.6518H4.54125V22.6464ZM8.55197 22.6464H10.5573V24.6518H8.55197V22.6464ZM4.54125 26.6571H6.54661V28.6625H4.54125V26.6571ZM8.55197 26.6571H10.5573V28.6625H8.55197V26.6571ZM16.5734 18.6357H18.5788V20.6411H16.5734V18.6357ZM20.5842 18.6357H22.5895V20.6411H20.5842V18.6357ZM16.5734 22.6464H18.5788V24.6518H16.5734V22.6464ZM20.5842 22.6464H22.5895V24.6518H20.5842V22.6464ZM24.5949 18.6357H26.6003V20.6411H24.5949V18.6357ZM24.5949 22.6464H26.6003V24.6518H24.5949V22.6464ZM16.5734 14.625H18.5788V16.6303H16.5734V14.625ZM20.5842 14.625H22.5895V16.6303H20.5842V14.625ZM24.5949 14.625H26.6003V16.6303H24.5949V14.625ZM16.5734 10.6142H18.5788V12.6196H16.5734V10.6142ZM20.5842 10.6142H22.5895V12.6196H20.5842V10.6142ZM24.5949 10.6142H26.6003V12.6196H24.5949V10.6142ZM24.5949 6.6035H26.6003V8.60887H24.5949V6.6035Z" fill="white"/>
</svg>
