<svg width="58" height="58" viewBox="0 0 58 58" fill="none" xmlns="http://www.w3.org/2000/svg">
<path d="M58 24.7274C57.9321 25.0287 57.8725 25.3336 57.795 25.6325C57.2455 27.7511 55.3717 29.2306 53.1844 29.2752C51.0161 29.3197 49.0589 27.9515 48.4414 25.8881C48.2984 25.4121 48.0922 25.3078 47.6273 25.3113C44.9131 25.3324 42.1978 25.3218 39.4133 25.3218C39.399 25.5516 39.3775 25.7568 39.3763 25.9608C39.3692 26.9749 39.4026 27.9902 39.3549 29.002C39.2536 31.1229 37.5991 32.6646 35.444 32.6857C34.5941 32.6939 33.7442 32.6869 32.8526 32.6869V35.5053C33.2864 35.5053 33.6977 35.5007 34.1077 35.5053C35.4678 35.5229 36.5501 36.0552 37.3523 37.1526C37.4751 37.3202 37.7469 37.4562 37.9602 37.4726C38.7482 37.5336 39.5527 37.4656 40.3287 37.5817C41.6256 37.7763 42.522 38.5536 42.9809 39.7518C43.1383 40.161 43.3373 40.2653 43.7462 40.2571C44.2981 40.2465 44.8678 40.2337 45.4007 40.3509C46.8883 40.6768 47.9682 41.9524 47.9873 43.4625C48.0231 46.2692 48.0099 49.0783 47.9897 51.885C47.9837 52.7209 47.6893 53.49 47.1791 54.1665C46.6237 54.9016 46.0765 55.6437 45.4972 56.3601C44.6449 57.4129 43.5257 57.9639 42.1477 57.9651C37.0531 57.9675 31.9586 57.9628 26.8628 57.9733C26.3991 57.9733 26.0761 57.8103 25.8138 57.4422C23.3071 53.9344 20.7812 50.4406 18.2888 46.9234C17.0265 45.1437 17.4234 42.8446 19.1458 41.6253C20.873 40.4025 23.1879 40.7812 24.5241 42.5105C24.8936 42.9888 25.2464 43.48 25.6923 44.0803V32.681C25.4872 32.681 25.2596 32.6869 25.0331 32.681C23.9055 32.6494 22.7611 32.7244 21.6562 32.5556C19.9516 32.2941 18.7024 30.8263 18.6082 29.131C18.551 28.1004 18.5844 27.0652 18.5784 26.0323C18.5772 25.8224 18.5784 25.6114 18.5784 25.3664C18.3448 25.35 18.1744 25.3289 18.0027 25.3289C15.4054 25.3265 12.8092 25.3371 10.2118 25.3171C9.79941 25.3136 9.64684 25.4355 9.52645 25.826C8.81363 28.1473 6.62037 29.5015 4.15533 29.1837C1.84167 28.8871 0.0751332 26.9151 0.00242166 24.5492C-0.0679059 22.2665 1.57228 20.2582 3.90977 19.7646C6.35574 19.2476 8.79218 20.692 9.54433 23.1318C9.64088 23.4436 9.73981 23.5773 10.0915 23.5749C12.8271 23.5609 15.5627 23.5667 18.2983 23.5644C18.3758 23.5644 18.4521 23.5468 18.5689 23.5327V19.3906H10.6743C10.6743 19.1104 10.6743 18.9029 10.6743 18.6942C10.6743 16.1595 10.666 13.6247 10.6827 11.09C10.6851 10.6914 10.5849 10.5331 10.163 10.4288C7.69197 9.81559 6.19721 7.48954 6.6156 4.97708C7.01015 2.61585 9.27136 0.921726 11.79 1.09993C14.2193 1.27228 16.1718 3.34626 16.2088 5.79776C16.2397 7.79788 14.9226 9.66084 12.9665 10.315C12.5815 10.444 12.4504 10.5976 12.4552 11.0021C12.4778 13.0104 12.4647 15.0187 12.4671 17.0271C12.4671 17.1982 12.485 17.3694 12.4993 17.6121C13.1155 17.6121 13.7044 17.6121 14.292 17.6121C15.6604 17.6121 17.0277 17.6262 18.3949 17.5968C18.5916 17.5922 18.8228 17.4163 18.9706 17.258C19.3687 16.8313 19.743 16.3834 20.0982 15.9215C20.2496 15.7257 20.4058 15.4807 20.4236 15.2473C20.5178 14.0456 20.4332 12.8158 20.6561 11.641C21.4273 7.59154 25.2453 4.74494 29.4578 4.97239C33.6059 5.19632 37.046 8.41105 37.4322 12.4641C37.5192 13.3738 37.4644 14.2954 37.5252 15.2087C37.5419 15.4584 37.7064 15.7222 37.8649 15.9355C38.2118 16.4022 38.592 16.8465 38.9746 17.2873C39.0879 17.4175 39.25 17.5992 39.3906 17.6004C41.3896 17.6203 43.3898 17.6144 45.4281 17.6144V10.5237C44.9715 10.3197 44.4995 10.1579 44.0776 9.9129C42.3384 8.90112 41.4051 6.90686 41.7615 5.03218C42.1608 2.93357 43.6735 1.44462 45.7702 1.08352C45.8834 1.06359 45.9919 1.01552 46.1039 0.980347C46.421 0.980347 46.7381 0.980347 47.0552 0.980347C47.1457 1.01435 47.2328 1.06242 47.3257 1.08C49.6895 1.50558 51.3487 3.34157 51.4393 5.63597C51.5287 7.88112 49.9946 9.88828 47.7167 10.4428C47.2983 10.5448 47.2459 10.7383 47.2483 11.0888C47.2578 13.6036 47.2542 16.1184 47.253 18.6333V19.3977H39.4133V23.582H40.1023C42.5804 23.582 45.0574 23.5656 47.5343 23.5949C48.066 23.6007 48.3103 23.4765 48.4844 22.9442C49.159 20.8901 51.1473 19.6087 53.3918 19.7025C55.4384 19.7881 57.2527 21.2723 57.7867 23.3029C57.8701 23.6195 57.9297 23.9431 58 24.2631V24.7309V24.7274ZM31.0383 40.5912C31.0383 40.3333 31.0383 40.1234 31.0383 39.9148C31.0383 38.4141 31.0383 36.9122 31.0383 35.4115C31.0383 33.15 31.0312 30.8896 31.0419 28.628C31.0455 27.8554 30.7701 27.254 30.0526 26.9057C28.8403 26.3172 27.5482 27.1871 27.547 28.594C27.5434 34.5979 27.5434 40.6018 27.5494 46.6057C27.5494 47.1145 27.4552 47.5553 26.9069 47.7265C26.3812 47.8895 26.0546 47.587 25.7697 47.1954C24.9175 46.0218 24.0604 44.8529 23.1962 43.6887C22.4 42.6148 21.1818 42.3686 20.1996 43.0685C19.2305 43.7602 19.0731 44.9491 19.8312 46.0183C22.1556 49.294 24.4824 52.5662 26.8282 55.8266C26.9689 56.0224 27.2919 56.1995 27.5315 56.2006C32.3674 56.2217 37.2033 56.2206 42.0392 56.2088C42.3885 56.2088 42.7568 56.1526 43.0811 56.0318C44.0525 55.6695 46.1743 52.8851 46.1886 51.8616C46.2267 49.0935 46.2184 46.3255 46.1969 43.5574C46.191 42.7602 45.6188 42.1283 44.8798 42.0521C44.3577 41.9981 43.8237 42.0415 43.2253 42.0415V45.1578H41.454C41.454 44.9174 41.454 44.7087 41.454 44.5C41.454 43.3698 41.4647 42.2385 41.4504 41.1083C41.4397 40.209 40.9188 39.4774 40.0868 39.3649C39.3787 39.2688 38.648 39.345 37.9483 39.345V43.1049H36.2009C36.2009 42.8493 36.2009 42.6383 36.2009 42.4272C36.2009 41.3943 36.214 40.3603 36.1961 39.3274C36.1794 38.3531 35.6323 37.5629 34.7752 37.4023C34.1661 37.2874 33.526 37.3261 32.8168 37.2933V40.5936H31.0372L31.0383 40.5912ZM32.8085 30.8872C32.9515 30.913 33.0099 30.9318 33.0671 30.933C33.8395 30.9365 34.6119 30.9447 35.3855 30.9353C36.6872 30.9212 37.5645 30.0994 37.5717 28.8203C37.5895 25.5469 37.5907 22.2724 37.5717 18.999C37.5633 17.7293 36.6729 16.8946 35.3712 16.8922C31.1122 16.884 26.8521 16.884 22.5919 16.8922C21.2616 16.8946 20.401 17.7375 20.376 19.0471C20.3581 20.0015 20.3712 20.957 20.3712 21.9113C20.3712 24.1916 20.364 26.4708 20.376 28.7511C20.3819 29.8837 21.0494 30.8016 22.0817 30.8861C23.2749 30.9834 24.4824 30.9083 25.7447 30.9083C25.7447 30.1732 25.7399 29.4768 25.7447 28.7804C25.7602 26.7568 27.2848 25.2093 29.2635 25.2034C31.2434 25.1976 32.7834 26.7393 32.8061 28.7581C32.8144 29.4557 32.8073 30.1545 32.8073 30.8872H32.8085ZM22.338 15.1113H35.6573C35.6573 14.4243 35.6752 13.7666 35.6549 13.1112C35.494 8.14961 29.9155 5.1248 25.5897 7.6783C22.7337 9.36422 22.0114 12.0068 22.338 15.1113ZM11.3383 8.81905C13.0416 8.82374 14.4041 7.4954 14.4053 5.83059C14.4053 4.19274 13.0559 2.85385 11.3943 2.84564C9.69928 2.83744 8.33565 4.1646 8.32015 5.83645C8.30465 7.45085 9.68498 8.81436 11.3383 8.81905ZM49.5929 5.83293C49.5929 4.18219 48.2615 2.85502 46.5927 2.84682C44.9024 2.83744 43.528 4.17163 43.5137 5.83645C43.5006 7.44851 44.8845 8.8167 46.5331 8.82022C48.2436 8.82491 49.5917 7.50947 49.5917 5.83293H49.5929ZM7.93633 24.4836C7.92918 22.8141 6.55123 21.4634 4.87767 21.4834C3.22199 21.5033 1.86193 22.8539 1.86193 24.4789C1.86193 26.139 3.22796 27.4662 4.93489 27.465C6.59772 27.465 7.94348 26.1273 7.93752 24.4836H7.93633ZM50.0161 24.4777C50.0125 26.1261 51.3594 27.4802 53.0008 27.4779C54.7089 27.4755 56.0905 26.1449 56.0905 24.5023C56.0905 22.8457 54.7089 21.4916 53.0282 21.5021C51.3618 21.5127 50.0196 22.8387 50.0161 24.4777Z" fill="#33679A"/>
</svg>
