<svg width="66" height="62" viewBox="0 0 66 62" fill="none" xmlns="http://www.w3.org/2000/svg">
<path d="M65.0986 38.1364C65.0326 38.2966 64.9573 38.4542 64.9021 38.6172C64.318 40.3493 62.7973 41.4834 61.0236 41.5089C59.188 41.5345 57.6458 40.4557 57.0173 38.7088C56.9581 38.5431 56.8975 38.3761 56.8195 38.1606C55.3459 38.1606 53.8709 38.1606 52.3973 38.1606C51.166 38.1606 49.9346 38.1633 48.7046 38.1606C47.667 38.1579 47.4813 37.9774 47.4786 36.9592C47.4759 35.3928 47.4786 33.8264 47.4786 32.1966H45.1033C44.8571 35.0507 43.7899 37.5599 41.7645 39.8254C42.8034 39.8254 43.689 39.8227 44.5758 39.8254C45.643 39.8294 45.8233 40.0085 45.8233 41.086C45.826 44.5354 45.8233 47.9847 45.8233 51.4341C45.8233 51.6994 45.8233 51.9634 45.8233 52.3297C47.0358 52.3297 48.1892 52.3486 49.3411 52.3042C49.4703 52.2988 49.6251 51.958 49.7031 51.7492C50.341 50.0266 51.9129 48.9464 53.7458 48.9908C55.5033 49.0326 57.0375 50.1761 57.5771 51.8476C58.2716 53.9945 57.1169 56.3246 54.9906 57.0627C52.8549 57.8048 50.5187 56.7165 49.7516 54.5656C49.5739 54.0672 49.3532 53.9218 48.8499 53.9393C47.7316 53.977 46.6119 53.9541 45.4936 53.95C44.4143 53.9473 44.2138 53.744 44.2138 52.6409C44.2125 49.2144 44.2138 45.7866 44.2138 42.3602C44.2138 42.0935 44.2138 41.8268 44.2138 41.4389H42.9286C42.5262 41.4389 42.1211 41.4672 41.7201 41.4335C40.5991 41.3406 39.6086 41.5722 38.6262 42.1985C37.1203 43.1602 35.3856 43.5508 33.5393 43.7124C33.5393 44.9287 33.542 46.1085 33.5393 47.2884C33.5366 48.1962 33.2916 48.4413 32.3886 48.4507C31.7844 48.4575 31.1802 48.4575 30.5759 48.4642C30.5328 48.4642 30.4911 48.4898 30.3471 48.5356C30.3471 49.5444 30.3821 50.5896 30.3364 51.6321C30.2946 52.5991 30.3323 53.2779 31.5072 53.748C33.3186 54.4713 34.083 56.6155 33.5379 58.5038C33.0077 60.3423 31.2178 61.6178 29.3284 61.5006C27.3676 61.3794 25.7581 59.9248 25.4607 58.0041C25.1579 56.0471 26.2103 54.1884 28.0311 53.4719C28.237 53.3911 28.451 53.3291 28.7349 53.2348V48.7619C28.7349 47.4805 29.38 46.8399 30.6701 46.8399C31.0671 46.8399 31.4641 46.8399 31.8948 46.8399V43.7501C31.2488 43.6357 30.5826 43.6141 29.9905 43.3932C28.638 42.8881 27.3232 42.2847 25.9923 41.7218C25.7702 41.6275 25.5495 41.4591 25.3248 41.4551C24.0073 41.4295 22.6898 41.443 21.2552 41.443C21.2552 41.7487 21.2552 42.0059 21.2552 42.2632C21.2552 45.7354 21.2566 49.2063 21.2552 52.6786C21.2552 53.7345 21.0439 53.9487 20.0063 53.9514C18.8651 53.9554 17.7226 53.9729 16.5827 53.9433C16.1131 53.9312 15.8964 54.0618 15.7295 54.54C15.0499 56.4849 13.147 57.557 11.0907 57.2243C9.21877 56.9212 7.77881 55.2471 7.68999 53.2712C7.60386 51.3479 8.91597 49.6077 10.8296 49.1094C12.8792 48.576 15.023 49.6939 15.7282 51.7331C15.9045 52.2409 16.1346 52.3715 16.6325 52.3526C17.6082 52.3149 18.5879 52.3419 19.6457 52.3419C19.6457 51.9957 19.6457 51.7331 19.6457 51.4704C19.6457 48.0211 19.6457 44.5717 19.6457 41.1224C19.6457 40.0072 19.8206 39.8348 20.9282 39.8294C21.7558 39.8254 22.5835 39.82 23.4111 39.8119C23.4488 39.8119 23.4878 39.7742 23.5955 39.7176C21.6926 37.5747 20.6079 35.0803 20.3657 32.1886H18.024C18.0119 32.4283 17.9917 32.664 17.9904 32.8984C17.9877 34.2641 17.9904 35.6312 17.9877 36.9969C17.985 37.9667 17.7858 38.1633 16.7954 38.1633C14.2667 38.166 11.7367 38.1741 9.208 38.1539C8.78947 38.1512 8.59299 38.2562 8.44765 38.6765C7.7492 40.7008 5.74537 41.8632 3.74154 41.4524C1.66235 41.0254 0.238538 39.1667 0.378496 37.0629C0.514418 35.0157 2.16162 33.3873 4.27446 33.2095C6.00106 33.064 7.74382 34.1819 8.3992 35.8561C8.47995 36.0622 8.54051 36.2777 8.62125 36.5188H16.3472C16.3567 36.2911 16.3755 36.0568 16.3768 35.8224C16.3795 34.4109 16.3715 33.0007 16.3822 31.5892C16.3876 30.8134 16.6621 30.54 17.4413 30.5292C18.3982 30.5157 19.3563 30.5265 20.3024 30.5265C20.5124 29.4584 20.7088 28.4577 20.9188 27.395C19.1303 27.395 17.3673 27.395 15.603 27.395C14.4834 27.395 14.3098 27.2253 14.3084 26.1236C14.3071 25.0703 14.2909 24.0184 14.3165 22.9652C14.3259 22.5503 14.2223 22.3523 13.789 22.2042C11.8484 21.5375 10.7745 19.7946 10.9817 17.7568C11.162 15.9776 12.6141 14.4893 14.4726 14.1781C16.5289 13.8347 18.5314 15.1277 19.106 17.1696C19.6793 19.2114 18.6054 21.4149 16.6002 22.1287C16.0108 22.3389 15.8776 22.619 15.9085 23.182C15.9543 24.0238 15.9206 24.871 15.9206 25.7815C17.798 25.7815 19.6053 25.7896 21.4113 25.7667C21.5593 25.7653 21.7626 25.5916 21.8433 25.4448C22.9751 23.3948 24.551 21.788 26.5629 20.5974C26.6988 20.5165 26.867 20.3441 26.8697 20.2108C26.8953 19.1872 26.8832 18.1622 26.8832 17.0591C26.0111 17.0591 25.2117 17.0591 24.411 17.0591C23.4932 17.0591 22.5754 17.0591 21.6576 17.0591C20.5016 17.0591 20.363 16.9163 20.363 15.7297C20.363 14.1391 20.363 12.5498 20.363 10.9591C20.363 10.7409 20.363 10.5227 20.363 10.2237C18.6646 10.2237 17.0376 10.2089 15.4119 10.248C15.2585 10.252 15.0513 10.5753 14.9732 10.7881C13.9168 13.6623 10.3384 14.5229 8.15966 12.4178C6.92829 11.2271 6.55013 9.42232 7.20148 7.84244C7.85148 6.26525 9.42197 5.22546 11.1028 5.26317C12.8133 5.30088 14.334 6.34337 14.9046 7.97174C15.0876 8.49567 15.3325 8.63306 15.8574 8.62228C17.4911 8.58726 19.1249 8.60746 20.7586 8.61016C21.733 8.61285 21.9738 8.86068 21.9752 9.85467C21.9779 11.6878 21.9752 13.5209 21.9752 15.4469C22.5942 15.4469 23.1675 15.4469 23.7395 15.4469C24.9708 15.4469 26.2022 15.4388 27.4322 15.4496C28.2114 15.4563 28.486 15.7244 28.4967 16.4975C28.5115 17.5197 28.5008 18.5434 28.5008 19.598C29.6702 19.3582 30.7535 19.1346 31.9297 18.8936C31.9297 18.4949 31.9297 18.0558 31.9297 17.6167C31.9297 15.9587 31.9284 14.3021 31.9297 12.6441C31.9297 11.6649 32.1652 11.4359 33.1665 11.4305C33.6321 11.4278 34.0991 11.4305 34.6603 11.4305C34.6603 10.6911 34.6751 10.0069 34.6468 9.32266C34.6414 9.19874 34.4773 9.02904 34.3481 8.97247C32.2527 8.06737 31.2299 6.65045 31.3349 4.77426C31.4466 2.79166 32.5609 1.53367 34.8339 0.822523C34.8527 0.815789 34.8675 0.794239 34.8837 0.778076C35.2861 0.778076 35.6898 0.778076 36.0922 0.778076C36.1702 0.817136 36.2429 0.869664 36.325 0.891214C38.2669 1.3909 39.5238 2.85226 39.6113 4.72038C39.7028 6.67066 38.6451 8.22765 36.7139 8.91455C36.3734 9.03577 36.2617 9.18662 36.2711 9.53008C36.29 10.314 36.2806 11.0978 36.2752 11.8804C36.2685 12.8299 36.0693 13.032 35.1394 13.04C34.6307 13.0441 34.1206 13.04 33.5769 13.04V18.8962C34.7128 19.1293 35.8122 19.3555 36.9669 19.5926C36.9669 18.6875 36.9669 17.839 36.9669 16.9904C36.9669 15.5627 37.0826 15.4442 38.4795 15.4442C38.7029 15.4442 38.9277 15.4442 39.1511 15.4442C40.5762 15.4442 42.0014 15.4442 43.4938 15.4442C43.4938 15.1546 43.4938 14.9364 43.4938 14.7182C43.4938 13.0831 43.4911 11.4494 43.4938 9.81427C43.4952 8.86472 43.7428 8.61016 44.6794 8.60746C46.3347 8.60208 47.9913 8.58726 49.6466 8.61824C50.1445 8.62767 50.372 8.50241 50.5496 7.99868C51.3167 5.82617 53.7014 4.73116 55.8452 5.511C57.958 6.28006 59.0871 8.63036 58.3658 10.7611C57.8032 12.4205 56.2516 13.5465 54.4954 13.568C52.6665 13.5896 51.0946 12.508 50.5066 10.7544C50.3652 10.3328 50.1863 10.2022 49.7597 10.2102C48.4179 10.2358 47.0749 10.2183 45.7318 10.221C45.538 10.221 45.3456 10.2493 45.1033 10.2682C45.1033 10.5631 45.1033 10.8069 45.1033 11.0494C45.1033 12.706 45.1074 14.3627 45.1007 16.0207C45.098 16.8153 44.8557 17.0524 44.0523 17.0551C42.6648 17.0605 41.2774 17.0564 39.8899 17.0564C39.4727 17.0564 39.0542 17.0564 38.5751 17.0564C38.5751 18.041 38.5993 18.934 38.5657 19.8256C38.5495 20.2674 38.7083 20.5031 39.0865 20.724C40.6368 21.6264 42.0296 22.7766 42.8855 24.3403C43.5571 25.5673 44.3753 25.9296 45.6887 25.8044C46.9215 25.6872 48.1757 25.7788 49.4824 25.7788C49.4824 24.8696 49.4474 24.044 49.4945 23.2224C49.5282 22.6365 49.3788 22.3429 48.7692 22.1207C46.7546 21.3866 45.7049 19.2101 46.2822 17.1547C46.8542 15.1183 48.8607 13.8293 50.9197 14.1768C52.8657 14.5054 54.2195 15.9722 54.416 17.9642C54.5976 19.8027 53.447 21.5631 51.5832 22.2028C51.1794 22.3416 51.0798 22.5274 51.0866 22.914C51.1054 24.0777 51.1054 25.2427 51.0866 26.4064C51.0758 27.1068 50.7892 27.3802 50.0961 27.3883C49.1123 27.4004 48.1273 27.391 47.1422 27.391C46.2822 27.391 45.4223 27.391 44.5462 27.391C44.7615 28.482 44.958 29.4813 45.1639 30.5225C46.1369 30.5225 47.0964 30.5104 48.0559 30.5265C48.7934 30.5386 49.0666 30.8174 49.0841 31.5501C49.0975 32.1091 49.0868 32.6694 49.0868 33.2297C49.0868 34.318 49.0868 35.4063 49.0868 36.5067H56.8464C56.9123 36.3154 56.9608 36.1672 57.0133 36.0191C57.635 34.2857 59.2459 33.1489 61.0129 33.1974C62.8431 33.2472 64.4001 34.4486 64.9398 36.2252C64.9842 36.372 65.0434 36.5147 65.0959 36.6588V38.1377L65.0986 38.1364ZM43.4965 31.3293C43.4965 25.3882 38.6733 20.5529 32.7439 20.5475C26.8118 20.5435 21.9819 25.368 21.9725 31.3077C21.9631 37.2798 26.8105 42.1433 32.7574 42.1245C38.6895 42.1056 43.4965 37.273 43.4965 31.3279V31.3293ZM4.4992 39.8981C5.91494 39.9089 7.06825 38.7761 7.07363 37.3713C7.07901 35.9773 5.90821 34.8042 4.5167 34.8096C3.14402 34.815 2.00148 35.945 1.97995 37.3188C1.95841 38.733 3.08481 39.8873 4.49785 39.8967L4.4992 39.8981ZM60.9092 39.8981C62.3277 39.9102 63.4783 38.7829 63.4864 37.3754C63.4931 35.9746 62.3344 34.8082 60.9389 34.8096C59.5702 34.8109 58.4209 35.9423 58.394 37.3134C58.3671 38.7182 59.5029 39.8846 60.9106 39.8967L60.9092 39.8981ZM38.0072 4.95204C38.0072 3.53648 36.8606 2.39029 35.457 2.40241C34.0803 2.41453 32.9566 3.53917 32.9377 4.92376C32.9175 6.33394 34.0533 7.4909 35.4623 7.49764C36.8794 7.50437 38.0072 6.37704 38.0072 4.95204ZM32.0805 57.3307C32.0764 55.9084 30.9433 54.7864 29.5235 54.7986C28.1482 54.8107 27.0177 55.9367 26.9989 57.3145C26.9801 58.6991 28.1509 59.8857 29.541 59.8925C30.9406 59.8992 32.0845 58.7449 32.0805 57.3307ZM12.5697 18.2955C12.5805 19.7192 13.7109 20.8236 15.1414 20.8075C16.5168 20.7913 17.6445 19.6559 17.6513 18.2794C17.658 16.8934 16.4805 15.7122 15.093 15.7176C13.6921 15.7217 12.5589 16.88 12.5697 18.2942V18.2955ZM50.2684 20.8088C51.68 20.8129 52.8307 19.668 52.8266 18.2659C52.8226 16.8705 51.6437 15.7042 50.2562 15.7203C48.8782 15.7365 47.7599 16.8638 47.7504 18.2471C47.7397 19.6801 48.8472 20.8061 50.2697 20.8102L50.2684 20.8088ZM11.8443 50.6017C10.4205 50.599 9.27663 51.7466 9.29413 53.1581C9.31162 54.5454 10.4461 55.6727 11.8282 55.6767C13.2453 55.6808 14.3784 54.5332 14.3676 53.1055C14.3569 51.6994 13.252 50.6031 11.8443 50.6004V50.6017ZM51.1 53.1621C51.1135 54.5588 52.2332 55.6727 53.626 55.6767C55.031 55.6808 56.1937 54.505 56.1722 53.1015C56.1507 51.6792 54.9987 50.5748 53.5641 50.6017C52.1632 50.6286 51.0852 51.7479 51.1 53.1621ZM13.5656 9.39C13.5508 7.99733 12.423 6.87538 11.0369 6.87134C9.63191 6.86865 8.47591 8.04178 8.49475 9.45196C8.51359 10.877 9.66152 11.9773 11.1001 11.9518C12.4957 11.9275 13.5817 10.7988 13.5669 9.39H13.5656ZM54.4537 11.9531C55.8492 11.9437 56.9662 10.8271 56.9729 9.43175C56.9796 8.02292 55.8088 6.85383 54.4092 6.87269C53.0177 6.89155 51.9075 8.01484 51.9021 9.4102C51.8967 10.8473 53.015 11.9612 54.455 11.9531H54.4537Z" fill="#33679A"/>
<path d="M33.5394 37.2784C33.5394 37.8643 33.5421 38.4233 33.5394 38.9809C33.5367 39.5331 33.2985 39.9035 32.709 39.8914C32.1559 39.8793 31.9352 39.5129 31.9312 38.9957C31.9258 38.4152 31.9312 37.8347 31.9312 37.4023C31.2166 36.9579 30.5531 36.6292 29.9933 36.174C29.3635 35.6635 29.0674 34.9214 29.0015 34.1092C28.9611 33.6055 29.1455 33.2055 29.6972 33.1408C30.2328 33.0789 30.5424 33.3604 30.5962 33.9005C30.6891 34.8258 31.2408 35.3511 32.0927 35.58C33.0078 35.8252 33.8341 35.6312 34.472 34.9066C35.1072 34.1847 35.0035 33.4142 34.1692 32.9388C33.4344 32.5199 32.6417 32.2007 31.8774 31.8317C31.4346 31.6189 30.9811 31.4222 30.5599 31.1717C28.5803 29.9918 28.4363 27.6308 30.2786 26.23C30.7483 25.8731 31.3229 25.6576 31.9271 25.3343C31.9271 24.8468 31.9258 24.2663 31.9271 23.6871C31.9285 23.1309 32.1788 22.7645 32.7615 22.7807C33.3079 22.7955 33.5353 23.1605 33.5367 23.6817C33.538 24.2609 33.5367 24.8414 33.5367 25.4313C35.0237 25.8596 36.0936 26.6704 36.4179 28.2328C36.4489 28.385 36.4785 28.5439 36.4704 28.6975C36.4475 29.1824 36.2215 29.5164 35.7047 29.5406C35.2296 29.5635 34.9672 29.3009 34.8757 28.8389C34.5406 27.1688 32.7884 26.4442 31.3915 27.3964C30.3203 28.1264 30.3324 29.2295 31.4656 29.8302C32.4708 30.3622 33.5326 30.7878 34.5514 31.297C35.3656 31.7037 36.0869 32.2277 36.3628 33.1678C36.749 34.4891 36.0842 35.9895 34.7532 36.7451C34.3872 36.9525 33.9794 37.0872 33.538 37.2771L33.5394 37.2784Z" fill="#33679A"/>
</svg>
