<svg width="56" height="63" viewBox="0 0 56 63" fill="none" xmlns="http://www.w3.org/2000/svg">
<path d="M54.4419 46.0002C53.8608 46.044 53.2798 46.0334 52.7184 46.0228C52.4718 46.0188 52.2226 46.0135 51.9721 46.0135H51.1196V26.8605L51.9944 26.8831C52.8863 26.907 53.1447 26.7582 53.3086 26.4751C53.4424 26.2439 53.5264 25.9422 53.5159 25.7269C53.5014 25.4 53.4818 24.9521 51.8724 24.8205L51.0881 24.7568V23.1181C51.0881 22.6504 51.0881 22.1839 51.0894 21.7161C51.0907 20.6689 51.092 19.5858 51.0855 18.5226C51.0802 17.7903 50.6946 17.4023 49.9693 17.3996C48.2577 17.3943 46.5159 17.3956 44.8318 17.3956C44.1314 17.3956 43.431 17.3956 42.7306 17.3956H41.3705L41.2327 16.7019C39.933 10.1448 36.1516 6.31079 29.6736 4.98182L28.9903 4.84228V4.13528C28.9903 3.99175 28.9864 3.84423 28.9837 3.69672C28.9746 3.32594 28.9654 2.94187 29.0021 2.53787C29.0716 1.7591 28.8644 1.29396 28.2912 0.972351H27.7115C27.1383 1.29263 26.9311 1.75777 27.0006 2.53654C27.0373 2.94054 27.0281 3.32461 27.019 3.69539C27.015 3.84291 27.0124 3.98909 27.0124 4.13262V4.8383L26.3304 4.97917C19.8721 6.31079 16.0881 10.1462 14.7621 16.7046L14.623 17.3956H11.2247C9.53404 17.3956 7.84339 17.3956 6.15274 17.3956C5.26348 17.3956 4.91591 17.7465 4.91459 18.6409C4.91197 19.8595 4.91328 21.0795 4.91459 22.3181V24.8524L4.05287 24.8418C3.22263 24.8285 2.91572 24.9149 2.73341 25.198C2.58388 25.4319 2.48551 25.7242 2.48289 25.9448C2.47896 26.2758 2.4724 26.7289 4.12501 26.9203L4.8818 27.008V46.0108H3.1282C2.44617 46.0108 1.7602 46.0108 1.07292 46.0108C0.623045 46.0108 0.344986 46.1676 0.139065 46.5344C-0.102269 46.9637 0.0262674 47.3145 0.123326 47.486C0.309573 47.8129 0.675509 48.0096 1.10047 48.0109C3.08098 48.0202 5.09559 48.0189 7.04463 48.0162C7.86438 48.0162 8.68413 48.0149 9.50519 48.0149H15.9202V53.7972L15.3667 54.0072C15.0952 54.1108 14.8224 54.2158 14.5496 54.3195C13.6918 54.6491 12.8065 54.9906 11.912 55.2963C11.3099 55.5023 10.6882 55.1036 10.4141 54.8351C9.51437 53.9527 8.34705 53.4809 7.13906 53.4809C6.73378 53.4809 6.32325 53.5341 5.91666 53.643C4.34011 54.0657 3.1282 55.2604 2.67307 56.8379C2.12876 58.729 2.57208 60.3583 3.99254 61.6806C5.40644 62.9963 7.02627 63.3086 8.80611 62.6082C10.5728 61.9118 11.5723 60.5523 11.7743 58.5668C11.8529 57.7907 12.2084 57.3296 12.9271 57.0704C14.1063 56.6452 15.3011 56.1853 16.4567 55.7415L17.0443 55.5155C17.7722 55.2365 17.9388 54.9919 17.9401 54.2078C17.9427 52.9772 17.9414 51.7466 17.9401 50.4947V48.0136H27.0085V48.8774C27.0085 49.1698 27.0085 49.4621 27.0098 49.7518C27.0124 50.7366 27.015 51.7546 26.9875 52.7553C26.9744 53.2191 26.6583 53.6058 26.0471 53.9022C24.746 54.5334 23.8042 55.691 23.4658 57.0797C23.1327 58.4459 23.4226 59.8852 24.2607 61.0281C25.4175 62.6029 27.3705 63.2847 29.2382 62.765C31.123 62.2388 32.4647 60.6188 32.6588 58.6359C32.8477 56.701 31.8142 54.8378 30.0894 53.9992C29.5871 53.756 28.926 53.3002 28.9785 52.1706C29.0126 51.437 29.006 50.7007 28.9982 49.922C28.9955 49.5937 28.9916 49.2628 28.9916 48.9266V48.0627H37.9957L38.0351 48.8854C38.0377 48.9372 38.0403 48.9904 38.0443 49.0448C38.0521 49.1831 38.0613 49.3385 38.0626 49.502C38.0626 50.1479 38.0626 50.7938 38.0626 51.4383C38.0626 52.3885 38.0626 53.3387 38.0652 54.2889C38.0679 54.968 38.2489 55.2338 38.8706 55.4743C39.9867 55.9063 41.1265 56.3382 42.2296 56.7541C42.6952 56.9309 43.1608 57.1063 43.6264 57.2831L44.1589 57.4851L44.1799 58.0605C44.2416 59.7895 44.8777 61.0839 46.1276 62.0182C48.1134 63.5026 50.8979 63.1544 52.4666 61.2248C54.0562 59.2685 53.8805 56.4857 52.0574 54.7527C50.2434 53.0291 47.4445 53.041 45.6843 54.7793C45.0849 55.3707 44.4606 55.4996 43.7156 55.1806C42.825 54.8006 41.8833 54.4643 41.0714 54.1786C40.3658 53.9301 40.0156 53.4291 40.0313 52.6875C40.0497 51.8064 40.0471 50.9253 40.0431 49.9937C40.0418 49.6269 40.0405 49.2548 40.0405 48.8747V48.0109H41.5541C42.7214 48.0109 43.8887 48.0096 45.0561 48.0069C48.1147 48.0016 51.277 47.9963 54.3894 48.0282C55.3587 48.0428 55.7456 47.773 56 47.3026V46.7138C55.6892 46.1437 55.2249 45.9324 54.4419 45.9922V46.0002ZM7.1312 60.9404H7.1207C6.4085 60.9377 5.70942 60.632 5.20315 60.1018C4.69687 59.5715 4.41881 58.8539 4.4398 58.1323C4.48177 56.6837 5.70942 55.4837 7.13251 55.4837C7.15087 55.4837 7.16923 55.4837 7.18628 55.4837C8.65921 55.5155 9.84096 56.7541 9.82259 58.2452C9.80423 59.7323 8.59756 60.939 7.1312 60.939V60.9404ZM48.8702 55.485C48.8833 55.485 48.8951 55.485 48.9082 55.485C50.3798 55.5049 51.5721 56.7355 51.5642 58.2266C51.5563 59.7177 50.3536 60.935 48.882 60.9404H48.8728C48.1645 60.9404 47.4668 60.64 46.9592 60.1164C46.449 59.5901 46.1657 58.8738 46.1814 58.1522C46.2129 56.6731 47.4169 55.4837 48.8715 55.4837L48.8702 55.485ZM16.9406 16.3816C17.5689 11.7436 21.8722 6.96995 27.9974 6.96995C28.0223 6.96995 28.0459 6.96995 28.0695 6.96995C34.1685 7.00716 38.4469 11.7861 39.0594 16.3843L39.1906 17.3637H16.8069L16.9393 16.383L16.9406 16.3816ZM12.2556 45.9789H6.94233V26.9137H12.2556V45.9789ZM19.6032 45.9856H14.2912V26.919H19.6032V45.9856ZM26.9744 46.0002H21.6755V26.915H26.9744V46.0002ZM30.6941 58.224C30.6914 58.9469 30.3885 59.6566 29.8651 60.1696C29.3615 60.6626 28.6847 60.9417 28 60.9417C27.9751 60.9417 27.9489 60.9417 27.924 60.9417C26.4773 60.8978 25.2811 59.6234 25.3113 58.1575C25.3414 56.6771 26.5455 55.485 28.0013 55.485C28.0132 55.485 28.0236 55.485 28.0354 55.485C29.5071 55.5036 30.7006 56.7315 30.6941 58.2226V58.224ZM34.3692 45.963H29.0336V26.907H34.3692V45.963ZM41.7062 45.9789H36.4061V26.8924H41.7062V45.9789ZM49.0774 45.9842H43.7668V26.8951H49.0774V45.9842ZM49.0814 24.8192H6.93314V19.4356H49.0814V24.8192Z" fill="#33679A"/>
</svg>
