<svg width="62" height="61" viewBox="0 0 62 61" fill="none" xmlns="http://www.w3.org/2000/svg">
<path d="M61.9998 35.4907C61.7875 35.8763 61.6201 36.2975 61.3545 36.6402C60.8086 37.3417 60.0479 37.627 59.1696 37.6221C58.164 37.6159 57.1571 37.6208 56.1089 37.6208V47.821C57.111 47.821 58.1312 47.8088 59.1514 47.8247C60.2724 47.8418 61.0378 48.6339 61.0451 49.7638C61.0475 50.0687 61.0415 50.3772 61.0039 50.6783C60.5077 54.6068 57.2978 57.567 53.3649 57.7078C52.438 57.7408 51.5076 57.7261 50.5796 57.7163C49.8723 57.709 49.4829 57.3503 49.5023 56.7627C49.5217 56.2008 49.8917 55.9229 50.5893 55.8898C51.9746 55.8249 53.3964 55.9131 54.7369 55.6242C57.299 55.0733 59.2072 52.5501 59.2279 50.0038C59.2279 49.9058 59.2169 49.8091 59.2085 49.6769H29.0479C29.3997 51.8107 29.1947 53.8576 28.2012 55.8604C28.4717 55.8739 28.6804 55.8923 28.889 55.8923C34.3177 55.8935 39.7476 55.8935 45.1763 55.8935C45.3377 55.8935 45.499 55.8935 45.6604 55.8935C46.4198 55.8996 46.8504 56.2301 46.8456 56.8043C46.8407 57.3772 46.4064 57.7188 45.6507 57.72C39.6166 57.7225 33.5814 57.7261 27.5473 57.7127C27.1288 57.7127 26.8473 57.8375 26.555 58.1387C22.878 61.9289 16.9641 61.924 13.2798 58.1252C12.9838 57.8204 12.6939 57.7139 12.2814 57.7114C10.4666 57.7029 8.64087 57.7775 6.83939 57.6013C3.04719 57.2291 -0.0183603 53.6654 -0.000163548 49.8153C0.00590204 48.629 0.785936 47.8345 1.97479 47.8222C2.94165 47.8124 3.9085 47.8198 4.98332 47.8198V47.0289C4.98332 38.4129 4.98332 29.7969 4.98332 21.1796C4.98332 18.9626 5.9987 17.944 8.21385 17.944C16.7506 17.944 25.2885 17.944 33.8252 17.944H34.6865C34.3675 17.3919 34.1212 16.9194 33.8313 16.475C33.5207 16 33.1822 15.5421 32.8365 15.0928C31.8636 13.8258 31.9958 12.7644 33.3242 11.9123C34.7532 10.9954 35.9033 9.82627 36.71 8.32905C37.0533 7.69123 37.325 7.01424 37.6999 6.20136C35.3319 6.70697 33.2805 6.3446 31.4269 4.88533C31.2497 5.00898 31.0751 5.13507 30.8967 5.25627C27.6444 7.46353 23.1861 6.47314 21.1821 3.08696C21.0341 2.836 20.857 2.48465 20.9261 2.25082C21.0159 1.95089 21.2937 1.6228 21.5763 1.48691C21.99 1.28737 22.3624 1.53955 22.5832 1.92885C23.1194 2.87395 23.8388 3.62806 24.8251 4.08347C26.7151 4.95634 28.5142 4.77515 30.1822 3.52033C31.2388 2.72582 31.5991 2.71602 32.6266 3.50932C34.1224 4.66497 35.771 4.88656 37.5434 4.29281C37.911 4.17039 38.1718 3.99655 38.1803 3.53135C38.1863 3.15062 38.2931 2.76744 38.3817 2.39161C38.5855 1.52241 39.2515 0.984984 40.1128 0.976415C40.9474 0.967845 41.6656 1.53098 41.8742 2.37324C41.9373 2.62911 42.0125 2.89476 42.0065 3.15429C41.9858 3.95983 42.4371 4.28057 43.1456 4.44339C44.8015 4.8229 46.3082 4.55235 47.6523 3.48238C48.5973 2.72949 49.051 2.72704 49.9985 3.48238C52.4126 5.40685 55.8518 4.81923 57.4931 2.20185C57.5465 2.11616 57.5914 2.02434 57.6484 1.93987C57.9917 1.42693 58.4927 1.28859 58.9428 1.57995C59.3662 1.85295 59.4814 2.35978 59.1903 2.87272C58.1603 4.68211 56.6415 5.85002 54.6132 6.27971C52.4975 6.72778 50.5747 6.23197 48.829 4.88778C47.0057 6.31399 44.958 6.72778 42.6361 6.21361C43.0886 7.72674 43.774 9.02685 44.8015 10.098C45.4541 10.7787 46.2172 11.3627 46.9814 11.9209C48.1424 12.7705 48.311 13.8429 47.4521 15.0071C46.8626 15.8053 46.3349 16.6488 45.7853 17.4764C45.7113 17.5878 45.6773 17.7273 45.5851 17.9465C45.869 17.9465 46.0825 17.9465 46.296 17.9465C48.5367 17.9465 50.7761 17.9416 53.0167 17.9477C55.0232 17.9538 56.0653 19.0201 56.0677 21.0486C56.0689 23.0245 56.0701 25.0004 56.0725 26.9763C56.0725 27.0155 56.0859 27.0546 56.1126 27.1918C56.747 27.1918 57.4033 27.1905 58.0596 27.1918C58.5437 27.193 59.0313 27.1636 59.5117 27.2126C60.8328 27.3472 61.5813 28.1785 62.0023 29.3819V35.4932L61.9998 35.4907ZM54.2565 27.1893C54.2565 25.1167 54.2565 23.1237 54.2565 21.1307C54.2565 19.997 54.0321 19.7657 52.9184 19.7657C37.9838 19.7657 23.0479 19.7657 8.11316 19.7657C7.04562 19.7657 6.79087 20.024 6.79087 21.0964C6.79087 28.1846 6.79087 35.274 6.79087 42.3622C6.79087 42.5777 6.79087 42.7944 6.79087 43.0588H7.46779C10.1524 43.0588 12.837 43.0649 15.5205 43.0502C15.8516 43.0478 16.201 42.9768 16.5116 42.8568C20.9868 41.1135 25.9884 43.0037 28.1757 47.3056C28.3868 47.7206 28.6221 47.8296 29.0564 47.8283C37.2304 47.8161 45.4044 47.8186 53.5784 47.8186H54.2262V44.878C53.9605 44.878 53.7239 44.878 53.4874 44.878C45.8581 44.878 38.2288 44.878 30.5995 44.878C30.3775 44.878 30.1494 44.8951 29.9371 44.8486C29.4398 44.7384 29.1535 44.4079 29.1971 43.8876C29.2372 43.4053 29.5344 43.1151 30.0233 43.0674C30.2234 43.0478 30.426 43.0588 30.6286 43.0588C38.2579 43.0588 45.8872 43.0588 53.5165 43.0588C53.7506 43.0588 53.9848 43.0588 54.2238 43.0588V37.6221H53.4765C48.6725 37.6221 43.8698 37.6306 39.0659 37.6098C38.5139 37.6074 37.9389 37.5033 37.4136 37.327C35.0808 36.546 32.7613 35.7258 30.4418 34.9055C30.1046 34.7868 29.8777 34.7954 29.595 35.0696C28.8284 35.8139 27.8918 36.2216 26.8206 36.2644C26.1959 36.2901 25.5699 36.2938 24.9452 36.2913C22.0701 36.2791 20.2528 34.5334 20.1036 31.643C20.0417 30.4469 19.2629 29.4492 18.1432 29.1297C16.7918 28.7453 15.4792 29.3904 14.8945 30.7714C14.2139 32.38 13.5758 34.0057 12.9013 35.6168C12.6636 36.1861 12.1589 36.3954 11.6725 36.1824C11.2212 35.9853 11.0234 35.4797 11.2369 34.9459C11.9333 33.2124 12.6041 31.4667 13.3672 29.7626C14.1678 27.974 16.1416 26.9457 17.9928 27.2444C20.2989 27.6153 21.8238 29.3537 21.9112 31.7385C21.9427 32.6065 22.2642 33.3202 22.9278 33.8662C23.9832 34.7354 27.016 34.7684 28.1138 33.9335C28.1284 33.9225 28.1332 33.8992 28.075 34.007C27.9173 33.3655 27.6686 32.828 27.6783 32.2943C27.6977 31.2672 28.3007 30.5767 29.2833 30.3306C29.9881 30.1544 30.3302 29.7393 30.5886 29.0807C31.4414 26.9065 32.3525 24.7568 33.2453 22.5985C33.5559 21.8481 34.0229 21.5738 34.564 21.8113C35.0808 22.0366 35.2094 22.5544 34.917 23.2694C34.2013 25.0176 33.4794 26.7621 32.7637 28.5102C32.6861 28.6988 32.6254 28.8946 32.5211 29.1884C34.251 28.5849 35.8426 28.0071 37.4512 27.4831C37.9789 27.3117 38.5515 27.2052 39.1047 27.2028C43.888 27.1807 48.6713 27.1905 53.4546 27.1905H54.2589L54.2565 27.1893ZM27.4078 51.6087C27.4163 47.4452 24.0851 44.0541 19.9726 44.037C15.814 44.0198 12.4549 47.3827 12.4452 51.572C12.4355 55.7515 15.814 59.1731 19.9374 59.1585C24.0487 59.1438 27.3993 55.7576 27.4078 51.6075V51.6087ZM39.5487 29.0477V35.76H51.9698V29.0477H39.5487ZM46.0874 13.5258C42.2576 11.1937 40.6296 7.49658 40.1249 3.09308C39.6203 7.54066 37.951 11.2659 34.1321 13.5564C34.9607 14.9582 35.7322 16.2864 36.5353 17.5976C36.6372 17.7641 36.8944 17.9281 37.0824 17.9306C39.0986 17.9538 41.1148 17.9514 43.131 17.9355C43.2996 17.9342 43.5435 17.8412 43.6223 17.7102C44.4472 16.3464 45.2455 14.9667 46.0886 13.5271L46.0874 13.5258ZM11.7125 56.011C10.6704 53.8747 10.429 51.8303 10.8026 49.6892H1.83771C1.72974 52.3677 3.64404 55.0659 6.29834 55.6119C7.99549 55.9608 9.77999 55.8849 11.7125 56.011ZM37.6562 35.4956V29.3329C36.4807 29.7381 35.3586 30.1152 34.2474 30.5241C34.1309 30.5669 34.0169 30.7971 34.0144 30.9428C33.9938 31.9184 33.989 32.8954 34.0193 33.8711C34.0241 34.0351 34.1952 34.2812 34.3456 34.3375C35.4192 34.7378 36.5074 35.099 37.6574 35.4944L37.6562 35.4956ZM57.5101 35.8041C58.153 35.8041 58.7353 35.8359 59.3128 35.7955C59.8732 35.7551 60.1862 35.4136 60.1887 34.8296C60.1923 33.2235 60.1911 31.6185 60.1899 30.0123C60.1899 29.4651 59.923 29.0905 59.3904 29.0415C58.7778 28.9852 58.1555 29.0281 57.5113 29.0281V35.8029L57.5101 35.8041ZM6.82847 44.9086V47.8186C8.29271 47.8186 9.71933 47.821 11.146 47.8124C11.2527 47.8124 11.4068 47.7635 11.4577 47.6851C12.0534 46.7633 12.6332 45.8317 13.2131 44.9086H6.82847ZM53.8077 29.0391C53.8077 31.2231 53.8028 33.3532 53.821 35.4821C53.821 35.5935 54.0175 35.7919 54.1328 35.7992C54.6265 35.8347 55.1239 35.8139 55.6334 35.8139V29.0379H53.8077V29.0391ZM32.1693 31.2427C31.3116 31.5389 30.4928 31.7973 29.6957 32.1107C29.3852 32.2331 29.3282 32.5538 29.6703 32.6946C30.4758 33.0251 31.3092 33.2883 32.1693 33.592V31.2427Z" fill="#33679A"/>
<path d="M16.6112 51.7606C16.6112 51.0482 16.593 50.3357 16.6148 49.6244C16.6646 48.0403 18.107 47.2017 19.4839 47.9692C20.7346 48.6671 21.972 49.3906 23.196 50.1349C24.5741 50.9722 24.562 52.6506 23.1754 53.4905C21.9671 54.2213 20.7455 54.9326 19.5154 55.6255C18.1106 56.4163 16.6573 55.5753 16.6136 53.9569C16.5942 53.2248 16.61 52.4927 16.6112 51.7606ZM22.4693 51.8047C21.1022 51.0102 19.8102 50.2598 18.4624 49.4763V54.1356C19.8211 53.3448 21.1034 52.5992 22.4693 51.8035V51.8047Z" fill="#33679A"/>
</svg>
